<svg width="274" height="170" viewBox="0 0 274 170" fill="none" xmlns="http://www.w3.org/2000/svg">
<path opacity="0.2" d="M78.7896 27.0285L105.929 48.2091C108.225 50.0125 111.364 50.673 114.329 50.0073L149.231 42.0729C156.671 40.3804 163.077 47.0529 160.051 53.3573L145.89 82.93C144.691 85.433 144.954 88.2969 146.575 90.6034L165.845 117.807C169.965 123.611 164.838 131.091 157.184 130.461L121.292 127.549C118.246 127.305 115.281 128.404 113.326 130.501L90.3224 155.244C85.4173 160.511 75.855 158.475 74.1554 151.792L66.1265 120.422C65.4538 117.764 63.3459 115.584 60.5106 114.576L27.0164 102.667C19.8705 100.133 19.0855 91.3772 25.6793 87.8678L56.6052 71.4029C59.2332 70.0135 60.8977 67.5546 61.1014 64.8246L63.4103 32.7289C63.9346 25.8713 73.0036 22.5098 78.7896 27.0285Z" fill="#F5C13A"/>
<path d="M214.639 154.331C214.869 150.135 214.913 138.013 205.813 126.167C199.159 117.501 190.735 113.05 186.354 111.083C189.357 111.684 202.601 114.016 216.218 107.154C230.054 100.181 234.453 88.6607 235.344 86.1146C235.003 90.2092 234.839 99.7202 240.859 109.918C248.071 122.134 259.606 127.644 263.627 129.367C259.497 129.007 244.862 128.173 230.985 136.729C221.146 142.792 216.514 150.604 214.639 154.331Z" fill="white"/>
</svg>
