<svg width="121" height="220" viewBox="0 0 121 220" fill="none" xmlns="http://www.w3.org/2000/svg">
<path d="M-53.0576 3.37564C-34.3554 9.49642 -18.8124 27.6605 5.26398 27.8845C29.0787 28.1089 61.5579 10.2622 85.1068 13.1041C108.656 15.946 123.274 39.4765 120.098 62.5114C116.79 85.6774 95.5574 107.955 75.9082 121.595C56.1285 135.104 37.8018 139.843 27.0506 153.468C16.1683 167.225 12.7305 189.998 0.93295 203.364C-10.9953 216.599 -31.0216 220.425 -52.2172 218.888C-73.4129 217.35 -95.3854 210.581 -109.495 195.947C-123.735 181.445 -129.981 159.21 -130.733 138.275C-131.355 117.47 -126.613 97.8351 -123.047 76.5006C-119.742 55.1666 -117.743 32.0026 -105.682 17.59C-93.7521 3.04679 -71.8905 -2.87577 -53.0576 3.37564Z" fill="#FFA590"/>
</svg>
