<svg width="239" height="343" viewBox="0 0 239 343" fill="none" xmlns="http://www.w3.org/2000/svg">
<path d="M164.387 45.333C149.603 74.4176 152.683 113.911 124.655 142.384C96.9341 170.55 37.797 187.695 13.4645 218.616C-10.8679 249.538 -0.395719 294.236 30.4049 317.504C61.5135 340.772 112.642 341.996 151.759 334.955C190.876 327.607 217.98 311.687 246.625 315.055C275.578 318.422 306.378 341.078 335.947 342.915C365.515 344.445 393.544 325.464 416.644 298.828C439.745 272.193 457.609 238.516 456.993 204.839C456.685 171.162 437.897 137.791 414.18 112.381C390.464 87.2761 361.819 69.8253 332.559 49.0068C303.606 27.8822 274.038 3.08372 242.929 0.328337C211.82 -2.7332 179.172 15.9422 164.387 45.333Z" fill="#FF6B00"/>
<path d="M164.387 45.333C149.603 74.4176 152.683 113.911 124.655 142.384C96.9341 170.55 37.797 187.695 13.4645 218.616C-10.8679 249.538 -0.395719 294.236 30.4049 317.504C61.5135 340.772 112.642 341.996 151.759 334.955C190.876 327.607 217.98 311.687 246.625 315.055C275.578 318.422 306.378 341.078 335.947 342.915C365.515 344.445 393.544 325.464 416.644 298.828C439.745 272.193 457.609 238.516 456.993 204.839C456.685 171.162 437.897 137.791 414.18 112.381C390.464 87.2761 361.819 69.8253 332.559 49.0068C303.606 27.8822 274.038 3.08372 242.929 0.328337C211.82 -2.7332 179.172 15.9422 164.387 45.333Z" fill="url(#paint0_linear_958_5475)"/>
<defs>
<linearGradient id="paint0_linear_958_5475" x1="457.176" y1="56.3252" x2="-85.9185" y2="363.146" gradientUnits="userSpaceOnUse">
<stop stop-color="#FF6B00"/>
<stop offset="1" stop-color="#FFC3DC"/>
</linearGradient>
</defs>
</svg>
