<svg width="16" height="15" viewBox="0 0 16 15" fill="none" xmlns="http://www.w3.org/2000/svg">
<path d="M8.10894 11.4208L11.2612 13.4179C11.6641 13.6732 12.1644 13.2935 12.0448 12.8232L11.1341 9.24051C11.1084 9.14073 11.1114 9.03573 11.1428 8.9376C11.1742 8.83946 11.2326 8.75217 11.3114 8.68577L14.1381 6.33306C14.5095 6.02392 14.3178 5.40751 13.8406 5.37654L10.1491 5.13696C10.0497 5.12986 9.95434 5.09465 9.87414 5.03545C9.79394 4.97624 9.73221 4.89548 9.69614 4.80255L8.31937 1.33549C8.28194 1.23685 8.2154 1.15194 8.12858 1.09201C8.04175 1.03209 7.93875 1 7.83325 1C7.72776 1 7.62476 1.03209 7.53793 1.09201C7.45111 1.15194 7.38456 1.23685 7.34714 1.33549L5.97037 4.80255C5.9343 4.89548 5.87257 4.97624 5.79237 5.03545C5.71217 5.09465 5.6168 5.12986 5.51737 5.13696L1.82588 5.37654C1.34869 5.40751 1.15698 6.02392 1.5284 6.33306L4.35511 8.68577C4.43388 8.75217 4.49232 8.83946 4.52369 8.9376C4.55506 9.03573 4.5581 9.14073 4.53245 9.24051L3.68784 12.563C3.54436 13.1274 4.14469 13.583 4.62821 13.2767L7.55756 11.4208C7.63995 11.3683 7.73559 11.3405 7.83325 11.3405C7.93092 11.3405 8.02656 11.3683 8.10894 11.4208Z" fill="#242424" stroke="#242424" stroke-width="2" stroke-linecap="round" stroke-linejoin="round"/>
</svg>
