<svg width="16" height="16" viewBox="0 0 16 16" fill="none" xmlns="http://www.w3.org/2000/svg">
<path d="M8.10894 12.4208L11.2612 14.4179C11.6641 14.6732 12.1644 14.2935 12.0448 13.8232L11.1341 10.2405C11.1084 10.1407 11.1114 10.0357 11.1428 9.9376C11.1742 9.83946 11.2326 9.75218 11.3114 9.68577L14.1381 7.33306C14.5095 7.02392 14.3178 6.40751 13.8406 6.37654L10.1491 6.13696C10.0497 6.12986 9.95434 6.09465 9.87414 6.03545C9.79394 5.97625 9.73221 5.89548 9.69614 5.80255L8.31937 2.33549C8.28194 2.23685 8.2154 2.15194 8.12858 2.09201C8.04175 2.03209 7.93875 2 7.83325 2C7.72776 2 7.62476 2.03209 7.53793 2.09201C7.45111 2.15194 7.38456 2.23685 7.34714 2.33549L5.97037 5.80255C5.9343 5.89548 5.87257 5.97625 5.79237 6.03545C5.71217 6.09465 5.6168 6.12986 5.51737 6.13696L1.82588 6.37654C1.34869 6.40751 1.15698 7.02392 1.5284 7.33306L4.35511 9.68577C4.43388 9.75218 4.49232 9.83946 4.52369 9.9376C4.55506 10.0357 4.5581 10.1407 4.53245 10.2405L3.68784 13.563C3.54436 14.1274 4.14469 14.583 4.62821 14.2767L7.55756 12.4208C7.63995 12.3683 7.73559 12.3405 7.83325 12.3405C7.93092 12.3405 8.02656 12.3683 8.10894 12.4208V12.4208Z" stroke="#242424" stroke-width="2" stroke-linecap="round" stroke-linejoin="round"/>
<path d="M7.99992 2V11.9261L6.99992 12.5928L3.99992 14.2594L4.66658 10.5928L4.33325 8.92611L1.33325 6.59277L3.99992 5.92611L6.33325 5.59277L7.99992 2Z" fill="#242424"/>
</svg>
