<svg width="366" height="366" viewBox="0 0 366 366" fill="none" xmlns="http://www.w3.org/2000/svg">
<rect width="366" height="366" rx="76" fill="#FF5747"/>
<path d="M153.107 64H242.784L169.6 117.295L153.107 64Z" fill="white"/>
<path d="M249.998 134.719V75.2739L195.367 115.246L249.998 155.217C249.998 150.093 249.998 141.893 249.998 134.719Z" fill="white"/>
<path d="M184.031 153.167H116V199.289H169.6L184.031 153.167Z" fill="white"/>
<path d="M202.584 138.819L179.907 207.488C177.845 214.662 172.692 223.886 168.569 233.111C161.353 244.385 152.076 256.684 139.707 271.032L177.845 308.954C192.276 294.605 203.615 281.281 212.892 268.983C222.169 256.684 229.384 243.36 234.538 231.061C239.692 218.762 243.815 203.388 246.907 189.039C246.907 183.915 248.969 177.765 248.969 172.641L202.584 138.819Z" fill="white"/>
<path d="M163.415 140.868L139.708 64H116V140.868H163.415Z" fill="white"/>
</svg>
