<svg width="366" height="366" viewBox="0 0 366 366" fill="none" xmlns="http://www.w3.org/2000/svg">
<rect x="0.5" y="0.5" width="365" height="365" rx="75.5" fill="white" stroke="#A1A1A1"/>
<path d="M89.8031 193.776H55.3135C55.58 196.234 56.151 198.238 56.9505 199.826C57.7499 201.415 58.7016 202.663 59.8056 203.57C60.9095 204.478 62.1277 205.121 63.4601 205.461C64.7924 205.801 66.0868 205.99 67.3811 205.99C70.5407 205.99 72.9009 205.423 74.4617 204.251C76.0225 203.079 77.1645 201.604 77.964 199.788L89.3843 204.402C87.7474 208.6 85.0826 211.814 81.3139 214.045C77.5452 216.277 72.7486 217.411 66.8862 217.411C62.8129 217.411 59.1584 216.768 55.9607 215.52C52.763 214.272 50.0602 212.419 47.8142 209.999C45.6062 207.579 43.8932 204.667 42.7511 201.301C41.571 197.898 41 194.04 41 189.691C41 185.91 41.533 182.393 42.6369 179.178C43.7409 175.964 45.3397 173.166 47.5096 170.821C49.6414 168.476 52.3062 166.623 55.5039 165.262C58.6635 163.9 62.3561 163.22 66.5055 163.22C70.16 163.22 73.4339 163.863 76.327 165.111C79.2202 166.359 81.6565 168.098 83.6741 170.292C85.6917 172.485 87.2145 175.094 88.2804 178.12C89.3463 181.145 89.8792 184.397 89.8792 187.876V193.776H89.8031ZM77.0123 184.548C76.86 181.599 75.8702 179.178 74.043 177.25C72.2157 175.321 69.8174 174.376 66.8481 174.376C63.6123 174.376 61.0618 175.283 59.1965 177.099C57.3311 178.914 56.113 181.41 55.5419 184.548H77.0123V184.548ZM143.821 216.579H129.432V184.662C129.432 181.372 128.823 178.914 127.566 177.325C126.348 175.699 124.369 174.905 121.704 174.905C119.648 174.905 117.897 175.245 116.374 175.888C114.852 176.569 113.405 177.477 111.997 178.687V216.579H97.7212V164.052H111.464V167.947C116.108 164.808 120.752 163.22 125.435 163.22C127.757 163.22 130.079 163.711 132.363 164.695C134.647 165.678 136.627 167.417 138.225 169.951C140.281 167.909 142.717 166.283 145.573 165.073C148.428 163.863 151.74 163.22 155.546 163.22C157.869 163.22 160.229 163.522 162.589 164.127C164.949 164.732 167.081 165.791 168.984 167.342C170.888 168.892 172.449 171.01 173.705 173.695C174.923 176.38 175.57 179.821 175.57 184.057V216.617H161.295V184.7C161.295 181.485 160.724 179.065 159.543 177.439C158.363 175.813 156.46 175.019 153.795 175.019C150.712 175.019 148.275 175.964 146.486 177.855C144.735 179.746 143.86 182.128 143.86 185.002V216.579H143.821ZM184.516 164.052H197.954V167.833C200.086 166.283 202.18 165.186 204.311 164.543C206.443 163.863 208.956 163.56 211.925 163.56C215.085 163.56 218.016 164.127 220.643 165.3C223.269 166.472 225.553 168.136 227.419 170.329C229.284 172.523 230.73 175.245 231.758 178.46C232.786 181.674 233.281 185.305 233.281 189.389C233.281 193.246 232.71 196.839 231.53 200.167C230.35 203.495 228.675 206.369 226.467 208.827C224.259 211.285 221.48 213.213 218.168 214.613C214.856 216.012 211.087 216.73 206.862 216.73C205.53 216.73 204.197 216.693 202.827 216.617C201.494 216.541 200.162 216.428 198.792 216.314V232.916H184.516V164.052ZM198.753 205.234C200.01 205.385 201.266 205.461 202.522 205.461C203.74 205.461 205.187 205.461 206.786 205.461C210.821 205.461 213.828 203.986 215.808 201.036C217.787 198.087 218.815 194.003 218.815 188.746C218.815 184.132 217.94 180.729 216.227 178.573C214.514 176.418 211.773 175.321 208.042 175.321C206.215 175.321 204.54 175.548 203.017 176.002C201.494 176.456 200.086 177.212 198.753 178.271V205.234V205.234ZM243.902 175.624H236.517V164.09H258.292V216.579H243.902V175.624ZM257.53 140C257.53 142.458 257.378 144.614 257.112 146.505C256.845 148.396 256.312 150.173 255.589 151.875C254.866 153.577 253.876 155.165 252.696 156.753C251.478 158.341 250.031 160.043 248.242 161.934L243.369 157.131C245.006 155.467 246.224 153.841 247.138 152.366C248.013 150.854 248.622 149.417 249.003 148.017H240.438V131H257.568V140H257.53ZM269.293 140.946H283.683V184.095H289.279L302.717 164.052H318.058L301.461 187.99L319.01 216.541H303.136L289.584 195.44H283.683V216.541H269.293V140.946Z" fill="black"/>
</svg>