<svg width="366" height="366" viewBox="0 0 366 366" fill="none" xmlns="http://www.w3.org/2000/svg">
<rect width="366" height="366" rx="76" fill="#A9CE52"/>
<path d="M220.586 177.5V186.636H248.729C249.221 183.666 249.631 180.632 250.001 177.5H220.586Z" fill="white"/>
<path d="M142.146 192.727H116V201.864H142.146V192.727Z" fill="white"/>
<path d="M178.1 192.727H148.686V201.864H178.1V192.727Z" fill="white"/>
<path d="M214.047 192.727H187.9V201.864H214.047V192.727Z" fill="white"/>
<path d="M220.586 192.727V201.864H244.573C245.373 198.882 246.093 195.869 246.732 192.759L220.586 192.727Z" fill="white"/>
<path d="M142.146 177.5H116V186.636H142.146V177.5Z" fill="white"/>
<path d="M178.1 177.5H148.686V186.636H178.1V177.5Z" fill="white"/>
<path d="M214.047 177.5H187.9V186.636H214.047V177.5Z" fill="white"/>
<path d="M142.146 159.227H116V168.364H142.146V159.227Z" fill="white"/>
<path d="M178.1 159.227H148.686V168.364H178.1V159.227Z" fill="white"/>
<path d="M214.047 159.227H187.9V168.364H214.047V159.227Z" fill="white"/>
<path d="M214.047 140.955H187.9V150.091H214.047V140.955Z" fill="white"/>
<path d="M220.586 159.227V168.364H249.447C249.684 165.382 249.842 162.337 250.001 159.227H220.586Z" fill="white"/>
<path d="M142.146 140.955H116V150.091H142.146V140.955Z" fill="white"/>
<path d="M142.146 122.682H116V134.864H142.146V122.682Z" fill="white"/>
<path d="M142.146 107.455H116V116.591H142.146V107.455Z" fill="white"/>
<path d="M178.1 140.955H148.686V150.091H178.1V140.955Z" fill="white"/>
<path d="M220.586 140.955V150.091H250.001C250.001 147.743 250.001 145.33 250.001 142.853V140.955H220.586Z" fill="white"/>
<path d="M178.1 122.682H148.686V134.864H178.1V122.682Z" fill="white"/>
<path d="M250.001 122.682H220.586V134.864H250.001V122.682Z" fill="white"/>
<path d="M214.047 107.455H187.9V116.591H214.047V107.455Z" fill="white"/>
<path d="M178.1 92.2273H148.686V101.364H178.1V92.2273Z" fill="white"/>
<path d="M250.001 77H220.586V86.1364H250.001V77Z" fill="white"/>
<path d="M142.146 77H116V86.1364H142.146V77Z" fill="white"/>
<path d="M179.438 207.955C172.977 226.994 159.549 246.739 135.611 269.234L175.234 305.409C212.639 270.715 233.618 243.354 243.465 207.955H179.438Z" fill="white"/>
</svg>
