<svg width="206" height="232" viewBox="0 0 206 232" fill="none" xmlns="http://www.w3.org/2000/svg">
<path d="M115.319 184.251C111.571 170.718 130.749 156.658 151.89 140.836C168.186 128.643 179.453 120.198 190.038 124.235C202.135 128.843 206.335 147.102 205.594 159.251C204.313 179.347 188.468 197.281 169.023 202.666C144.082 209.57 120.045 201.318 115.319 184.251Z" fill="#FF9671"/>
<path d="M107.811 141.502C99.0113 159.584 54.1143 162.984 26.4917 142.525C0.37276 123.191 -3.95324 87.3903 3.75799 64.4418C5.83951 58.2565 9.78769 47.0564 21.099 40.5008C29.8176 35.4562 42.6993 33.2858 52.2106 38.6341C64.2182 45.3675 62.7219 59.3751 69.9146 79.8939C84.2407 120.598 113.804 129.191 107.811 141.502Z" fill="#FF6B00"/>
<path d="M198.52 47.6639C200.002 30.6784 191.646 6.2855 173.335 1.04838C163.497 -1.75907 151.764 1.22614 144.253 8.15958C135.779 15.9745 135.934 25.7969 133.267 44.9972C127.178 88.7682 118.052 97.6572 123.571 102.517C135.393 112.946 195.039 87.42 198.52 47.6639Z" fill="#FFBFDC"/>
<path d="M36.0593 180.267L34.0735 180.608L38.1388 204.291L40.1247 203.951L36.0593 180.267Z" fill="white"/>
<path d="M38.232 204.681C38.1441 204.679 38.0593 204.647 37.9919 204.591C37.9245 204.534 37.8786 204.456 37.8617 204.37L33.795 180.666C33.7872 180.618 33.7891 180.569 33.8006 180.522C33.812 180.475 33.8328 180.431 33.8616 180.392C33.9174 180.311 34.0024 180.255 34.0986 180.236L36.0838 179.895C36.1809 179.88 36.28 179.904 36.3602 179.96C36.4404 180.017 36.4954 180.103 36.5135 180.199L40.5802 203.903C40.5884 203.951 40.5867 204 40.5752 204.047C40.5638 204.094 40.5428 204.139 40.5136 204.177C40.4872 204.218 40.4524 204.253 40.4116 204.28C40.3707 204.307 40.3247 204.325 40.2765 204.333L38.2913 204.674L38.232 204.681ZM34.5876 180.94L38.5284 203.903L39.7876 203.688L35.8468 180.725L34.5876 180.94Z" fill="#242424"/>
<path d="M119.436 137.236C110.651 153.991 100.088 165.94 89.6802 174.599L88.1987 175.814C87.3659 176.309 86.4817 176.711 85.5616 177.014C84.554 177.33 83.5203 177.555 82.4727 177.688C81.6357 177.814 80.9319 177.888 80.4282 177.925L45.3832 183.903L43.7388 177.977C49.4725 176.178 55.0016 173.782 60.2353 170.829C63.2576 169.11 66.2058 167.177 70.954 165.606C73.9862 164.609 77.1228 163.963 80.3023 163.68L96.0729 125.68L119.436 137.236Z" fill="white"/>
<path d="M45.3744 184.303C45.2933 184.303 45.2146 184.276 45.1503 184.226C45.0861 184.176 45.0399 184.107 45.0188 184.029L43.3743 178.103C43.3464 178.012 43.3557 177.913 43.4001 177.828C43.4444 177.744 43.5204 177.68 43.6114 177.651C49.32 175.854 54.8262 173.468 60.0413 170.532L61.4709 169.71C64.4099 167.877 67.5488 166.386 70.8266 165.266C73.8172 164.283 76.9079 163.637 80.0416 163.34L95.7233 125.561C95.7411 125.514 95.7688 125.471 95.8046 125.435C95.8404 125.4 95.8834 125.372 95.9307 125.354C95.9775 125.334 96.0279 125.324 96.0788 125.324C96.1298 125.324 96.1802 125.334 96.227 125.354L119.598 136.902C119.642 136.925 119.681 136.956 119.713 136.995C119.745 137.033 119.769 137.077 119.783 137.124C119.82 137.215 119.82 137.316 119.783 137.406C111.983 152.288 101.946 164.895 89.938 174.881C89.4442 175.295 88.9504 175.703 88.4565 176.103C87.5863 176.623 86.6624 177.048 85.7009 177.37C84.674 177.69 83.6204 177.918 82.5527 178.051C81.8564 178.162 81.1601 178.244 80.4786 178.296L45.4707 184.266L45.3744 184.303ZM44.1818 178.258L45.6633 183.51L80.3749 177.584C81.0786 177.525 81.7527 177.451 82.4342 177.347C83.4588 177.215 84.47 176.995 85.4565 176.688C86.3523 176.39 87.2139 175.998 88.0269 175.518L89.4639 174.34C101.62 164.089 111.638 151.544 118.946 137.421L96.2714 126.213L80.6342 163.903C80.6094 163.964 80.5678 164.018 80.5141 164.057C80.4604 164.097 80.3968 164.12 80.3305 164.125C77.1783 164.403 74.0688 165.045 71.0637 166.036C67.8331 167.134 64.7388 168.597 61.8413 170.399L60.4042 171.229C55.2505 174.119 49.8147 176.474 44.1818 178.258Z" fill="#242424"/>
<path d="M142.888 136.228C148.681 164.046 154.471 191.864 160.259 219.681L153.325 220.696C151.826 216.565 150.046 212.541 147.999 208.652C144.162 201.355 141.71 198.955 139.444 193.222C137.677 188.705 136.676 183.926 136.481 179.081L115.636 141.68L142.888 136.228Z" fill="white"/>
<path d="M153.333 221.066C153.257 221.066 153.183 221.043 153.121 220.999C153.058 220.955 153.011 220.893 152.985 220.822C151.493 216.704 149.718 212.695 147.674 208.822C146.059 205.748 144.711 203.54 143.474 201.592C141.751 198.997 140.29 196.238 139.111 193.355C137.352 188.826 136.351 184.038 136.148 179.184L115.311 141.835C115.285 141.784 115.272 141.727 115.272 141.669C115.272 141.611 115.285 141.554 115.311 141.502C115.336 141.449 115.373 141.403 115.419 141.367C115.466 141.331 115.52 141.306 115.577 141.295L142.83 135.865C142.877 135.855 142.926 135.855 142.974 135.864C143.022 135.874 143.067 135.892 143.108 135.919C143.149 135.946 143.183 135.98 143.211 136.021C143.238 136.061 143.257 136.106 143.267 136.154L160.637 219.607C160.652 219.705 160.631 219.805 160.578 219.888C160.549 219.93 160.512 219.966 160.468 219.993C160.425 220.019 160.377 220.037 160.326 220.044L153.393 221.066H153.333ZM116.214 141.924L136.844 178.903C136.873 178.952 136.889 179.008 136.889 179.066C137.076 183.869 138.06 188.607 139.8 193.088C140.959 195.929 142.401 198.646 144.104 201.199C145.318 203.162 146.704 205.377 148.333 208.481C150.344 212.295 152.096 216.24 153.578 220.289L159.822 219.37L142.607 136.665L116.214 141.924Z" fill="#242424"/>
<path d="M179.338 219.198L156.223 229.693L157.105 231.635L180.22 221.14L179.338 219.198Z" fill="white"/>
<path d="M157.146 232C157.075 232 157.005 231.978 156.946 231.939C156.887 231.899 156.841 231.843 156.813 231.778L155.931 229.837C155.91 229.793 155.898 229.746 155.896 229.697C155.893 229.649 155.901 229.601 155.917 229.555C155.934 229.509 155.959 229.468 155.992 229.432C156.025 229.397 156.065 229.368 156.109 229.348L179.228 218.852C179.272 218.832 179.32 218.821 179.369 218.821C179.417 218.821 179.465 218.832 179.51 218.852C179.601 218.887 179.675 218.956 179.717 219.044L180.598 220.985C180.639 221.074 180.642 221.176 180.607 221.268C180.572 221.359 180.503 221.433 180.413 221.474L157.302 231.97C157.252 231.99 157.2 232.001 157.146 232ZM156.754 229.867L157.331 231.133L179.769 220.948L179.191 219.681L156.754 229.867Z" fill="#242424"/>
<path d="M151.413 215.54L158.776 212.955L160.613 220.148C161.25 220.059 162.309 219.896 163.576 219.644C172.094 217.977 176.169 215.296 178.294 217.103C178.89 217.644 179.264 218.385 179.346 219.185L156.294 229.681C154.66 224.97 153.032 220.256 151.413 215.54Z" fill="#242424"/>
<path d="M156.295 230.052C156.247 230.062 156.196 230.062 156.147 230.052C156.1 230.032 156.057 230.002 156.022 229.963C155.988 229.925 155.962 229.879 155.947 229.83L151.088 215.696C151.057 215.603 151.064 215.501 151.107 215.412C151.149 215.324 151.225 215.256 151.318 215.222L158.681 212.637C158.727 212.615 158.778 212.604 158.829 212.604C158.88 212.604 158.931 212.615 158.977 212.637C159.024 212.66 159.064 212.693 159.096 212.734C159.129 212.775 159.151 212.823 159.162 212.874L160.918 219.741C161.799 219.607 162.688 219.459 163.562 219.281C166.195 218.751 168.799 218.083 171.362 217.281C174.94 216.215 177.096 215.57 178.592 216.829C179.249 217.431 179.667 218.249 179.77 219.133C179.784 219.213 179.771 219.296 179.734 219.368C179.697 219.441 179.636 219.498 179.562 219.533L156.451 230.03C156.401 230.048 156.348 230.055 156.295 230.052ZM151.851 215.755L156.458 229.163L178.925 218.955C178.819 218.346 178.514 217.789 178.059 217.37C176.866 216.37 174.851 216.97 171.518 217.97C168.93 218.779 166.301 219.454 163.644 219.992C162.651 220.185 161.636 220.355 160.636 220.504C160.546 220.514 160.455 220.49 160.38 220.439C160.305 220.387 160.251 220.31 160.229 220.222L158.488 213.422L151.851 215.755Z" fill="#242424"/>
<path d="M52.7472 182.673L50.5249 175.555L36.2136 180.281L39.9989 203.903C40.6017 204.057 41.2379 204.013 41.8137 203.777C43.91 202.829 43.8286 199.007 44.3841 192.6C44.5693 190.466 44.8804 187.488 45.3989 183.911L52.7472 182.673Z" fill="#242424"/>
<path d="M40.739 204.385C40.4497 204.382 40.1615 204.347 39.8798 204.281C39.8061 204.266 39.7388 204.229 39.687 204.175C39.6353 204.121 39.6017 204.052 39.5909 203.977L35.8427 180.34C35.8277 180.252 35.8449 180.162 35.8912 180.085C35.9374 180.009 36.0096 179.952 36.0945 179.925L50.3984 175.199C50.4912 175.162 50.5945 175.162 50.6873 175.199C50.7751 175.247 50.8413 175.326 50.8725 175.421L53.0948 182.54C53.1127 182.59 53.1187 182.643 53.1123 182.696C53.1058 182.749 53.0872 182.799 53.0577 182.844C53.031 182.889 52.9945 182.928 52.9509 182.957C52.9074 182.987 52.8578 183.006 52.8059 183.014L45.7095 184.229C45.302 187.029 44.9687 189.859 44.7317 192.629C44.6428 193.636 44.5761 194.57 44.5094 195.451C44.1391 200.296 43.9168 203.229 41.939 204.118C41.5632 204.293 41.1537 204.384 40.739 204.385ZM40.2798 203.607C40.7309 203.689 41.1962 203.64 41.6205 203.466C43.1909 202.725 43.4057 199.992 43.7539 195.414C43.8206 194.533 43.8946 193.592 43.9835 192.584C44.228 189.71 44.5761 186.784 44.9983 183.873C45.0108 183.796 45.0466 183.725 45.101 183.67C45.1553 183.614 45.2256 183.576 45.3021 183.562L52.2503 182.377L50.2725 176.021L36.6204 180.532L40.2798 203.607Z" fill="#242424"/>
<path d="M148.925 165.251L131.644 170.34L115.636 141.68C119.113 137.986 123.172 134.885 127.651 132.502C132.201 130.07 137.126 128.415 142.222 127.606C143.192 135.013 144.399 142.74 145.925 150.747C146.859 155.735 147.859 160.569 148.925 165.251Z" fill="#242424"/>
<path d="M131.642 170.71C131.576 170.711 131.511 170.694 131.454 170.662C131.396 170.629 131.349 170.582 131.316 170.525L128.02 164.599L115.308 141.813C115.269 141.745 115.253 141.665 115.262 141.586C115.272 141.508 115.306 141.434 115.36 141.376C118.867 137.651 122.961 134.526 127.479 132.124C132.062 129.678 137.022 128.015 142.153 127.206C142.203 127.197 142.253 127.199 142.302 127.212C142.351 127.225 142.396 127.248 142.435 127.28C142.474 127.309 142.508 127.345 142.533 127.387C142.559 127.429 142.575 127.476 142.583 127.524C143.583 135.235 144.805 143.013 146.287 150.651C147.198 155.48 148.212 160.354 149.301 165.147C149.32 165.239 149.304 165.335 149.256 165.416C149.208 165.496 149.132 165.557 149.042 165.584L131.76 170.673C131.724 170.695 131.684 170.707 131.642 170.71ZM116.086 141.71L128.679 164.258L131.827 169.903L148.494 164.999C147.427 160.302 146.442 155.532 145.531 150.813C144.109 143.287 142.886 135.621 141.886 128.021C136.967 128.838 132.213 130.452 127.812 132.798C123.452 135.11 119.493 138.109 116.086 141.68V141.71Z" fill="#242424"/>
<path d="M119.432 137.236C114.388 146.984 108.085 156.027 100.684 164.132L84.0912 154.554C88.0764 144.93 92.0666 135.3 96.0617 125.665L119.432 137.236Z" fill="#242424"/>
<path d="M100.686 164.532C100.62 164.534 100.556 164.516 100.501 164.48L83.908 154.902C83.8298 154.858 83.7703 154.788 83.7403 154.703C83.7104 154.619 83.712 154.526 83.745 154.443C85.7203 149.628 87.7154 144.816 89.7303 140.006C91.7451 135.196 93.7402 130.386 95.7156 125.576C95.757 125.481 95.8343 125.407 95.9304 125.369C95.9772 125.349 96.0276 125.338 96.0785 125.338C96.1294 125.338 96.1798 125.349 96.2267 125.369L119.597 136.917C119.685 136.962 119.751 137.039 119.783 137.132C119.819 137.225 119.819 137.328 119.783 137.421C114.717 147.195 108.394 156.265 100.975 164.399C100.94 164.441 100.895 164.475 100.846 164.498C100.796 164.521 100.741 164.533 100.686 164.532ZM84.5598 154.421L100.612 163.688C107.812 155.752 113.966 146.927 118.923 137.428L96.2489 126.22C94.3081 130.907 92.3649 135.598 90.4192 140.295C88.4735 144.991 86.5204 149.7 84.5598 154.421Z" fill="#242424"/>
<path d="M166.827 54.99H75.6112V104.606H166.827V54.99Z" fill="white"/>
<path d="M166.823 111.605L112.992 148.347L60.7916 111.62V55.2046H166.823V111.605Z" fill="white"/>
<path d="M57.9272 55.1971L112.987 29.093L166.818 55.1971L112.987 80.8864" fill="white"/>
<path d="M112.99 81.257C112.92 81.2574 112.851 81.2373 112.792 81.1991C112.732 81.161 112.686 81.1064 112.657 81.0421C112.635 80.9984 112.623 80.9508 112.62 80.9022C112.617 80.8535 112.623 80.8047 112.639 80.7586C112.655 80.7125 112.68 80.6699 112.712 80.6334C112.744 80.5969 112.783 80.5671 112.827 80.5458L165.969 55.1899L112.99 29.5006L58.0931 55.5232C58.0489 55.5444 58.0009 55.5567 57.9519 55.5593C57.903 55.5618 57.854 55.5546 57.8078 55.5381C57.7616 55.5216 57.7192 55.496 57.683 55.463C57.6468 55.4299 57.6175 55.3899 57.5968 55.3454C57.5562 55.2569 57.5521 55.156 57.5854 55.0646C57.6187 54.9731 57.6866 54.8983 57.7746 54.8566L112.827 28.7525C112.879 28.7305 112.934 28.7191 112.99 28.7191C113.046 28.7191 113.102 28.7305 113.153 28.7525L166.984 54.8566C167.046 54.8871 167.098 54.9345 167.135 54.9935C167.172 55.0524 167.191 55.1205 167.191 55.1899C167.191 55.2593 167.172 55.3273 167.135 55.3863C167.098 55.4452 167.046 55.4926 166.984 55.5232L113.146 81.2199C113.097 81.2426 113.044 81.2552 112.99 81.257Z" fill="#242424"/>
<path d="M57.9272 55.1973L112.987 80.8865V148.332L57.9272 120.85V55.1973Z" fill="#242424"/>
<path d="M112.99 148.702C112.931 148.702 112.872 148.686 112.82 148.658L57.7745 121.183C57.7128 121.152 57.6607 121.105 57.6242 121.046C57.5876 120.987 57.5678 120.919 57.5671 120.85V55.1898C57.5672 55.1278 57.5829 55.0669 57.6127 55.0125C57.6424 54.9582 57.6854 54.9121 57.7375 54.8786C57.7922 54.8494 57.8533 54.8342 57.9153 54.8342C57.9773 54.8342 58.0384 54.8494 58.0931 54.8786L113.153 80.5679C113.218 80.598 113.273 80.6461 113.311 80.7066C113.349 80.767 113.369 80.8372 113.368 80.9087V148.317C113.368 148.38 113.351 148.442 113.32 148.496C113.289 148.551 113.244 148.596 113.19 148.628C113.132 148.672 113.063 148.698 112.99 148.702ZM58.3005 120.62L112.62 147.732V81.1161L58.3005 55.7528V120.62Z" fill="#242424"/>
<path d="M112.99 148.332L166.82 121.672V55.1973" fill="white"/>
<path d="M112.993 148.702C112.924 148.702 112.856 148.682 112.797 148.646C112.739 148.609 112.691 148.557 112.66 148.495C112.638 148.451 112.626 148.404 112.623 148.355C112.619 148.306 112.626 148.258 112.642 148.212C112.658 148.165 112.682 148.123 112.715 148.086C112.747 148.05 112.786 148.02 112.83 147.999L166.453 121.435V55.19C166.453 55.0917 166.492 54.9975 166.562 54.9281C166.631 54.8586 166.725 54.8196 166.824 54.8196C166.922 54.8196 167.016 54.8586 167.085 54.9281C167.155 54.9975 167.194 55.0917 167.194 55.19V121.68C167.194 121.749 167.175 121.817 167.138 121.876C167.101 121.935 167.049 121.983 166.987 122.013L113.156 148.68C113.104 148.701 113.048 148.708 112.993 148.702Z" fill="#242424"/>
<path d="M75.6112 92.998L88.6558 98.7832V68.9606L123.73 52.0121L109.864 46.3528L75.6112 62.8715V92.998Z" fill="white"/>
<path d="M88.6541 99.1536C88.6052 99.1638 88.5548 99.1638 88.5059 99.1536L75.4539 93.3684C75.389 93.3383 75.3342 93.2902 75.2961 93.2297C75.258 93.1693 75.2382 93.099 75.2391 93.0275V62.9086C75.238 62.839 75.257 62.7706 75.2938 62.7115C75.3306 62.6524 75.3836 62.6051 75.4465 62.5752L109.706 46.0491C109.753 46.0287 109.803 46.0182 109.854 46.0182C109.905 46.0182 109.956 46.0287 110.003 46.0491L123.869 51.7085C123.936 51.7349 123.994 51.7808 124.035 51.8401C124.076 51.8995 124.098 51.9697 124.099 52.0418C124.103 52.1128 124.085 52.1832 124.048 52.244C124.011 52.3047 123.956 52.3529 123.892 52.3825L89.0245 69.2346V98.8277C89.0246 98.8879 89.0098 98.9471 88.9813 99.0001C88.9529 99.0532 88.9117 99.0983 88.8615 99.1314C88.796 99.159 88.7239 99.1666 88.6541 99.1536ZM75.9798 92.7535L88.2837 98.2128V68.9605C88.2833 68.8901 88.3034 68.8211 88.3416 68.762C88.3797 68.7028 88.4343 68.656 88.4985 68.6272L122.818 52.0344L109.877 46.7528L75.9798 63.1012V92.7535Z" fill="#242424"/>
<path d="M122.554 116.88V134.872L143.784 124.213V107.094L122.554 116.88Z" fill="white"/>
<path d="M122.552 135.243C122.484 135.242 122.417 135.221 122.36 135.184C122.306 135.152 122.261 135.106 122.23 135.052C122.199 134.997 122.182 134.936 122.182 134.873V116.88C122.183 116.809 122.203 116.739 122.241 116.679C122.279 116.619 122.333 116.571 122.397 116.539L143.627 106.754C143.681 106.725 143.743 106.709 143.805 106.709C143.867 106.709 143.928 106.725 143.982 106.754C144.034 106.787 144.077 106.833 144.107 106.888C144.137 106.942 144.153 107.003 144.153 107.065V124.184C144.153 124.253 144.133 124.321 144.097 124.38C144.06 124.439 144.008 124.487 143.945 124.517L122.723 135.184C122.671 135.215 122.613 135.236 122.552 135.243ZM122.923 117.117V134.273L143.412 123.984V107.687L122.923 117.117Z" fill="#242424"/>
<path d="M88.6585 69.331C88.6072 69.3411 88.5543 69.3411 88.503 69.331L75.4509 63.242C75.3624 63.1988 75.2944 63.1227 75.2611 63.03C75.2279 62.9373 75.2322 62.8353 75.2731 62.7457C75.3164 62.6572 75.3924 62.5892 75.4851 62.556C75.5779 62.5228 75.6799 62.527 75.7694 62.5679L88.8215 68.657C88.91 68.7002 88.9781 68.7762 89.0113 68.8689C89.0445 68.9616 89.0402 69.0636 88.9993 69.1532C88.963 69.2101 88.9124 69.2565 88.8526 69.2877C88.7928 69.3189 88.7259 69.3338 88.6585 69.331Z" fill="#242424"/>
</svg>
