<svg width="280" height="176" viewBox="0 0 280 176" fill="none" xmlns="http://www.w3.org/2000/svg">
<g clip-path="url(#clip0_1005_6761)">
<path d="M229.356 103.783H110.89C90.9478 103.783 74.7814 119.949 74.7814 139.891C74.7814 159.834 90.9478 176 110.89 176H229.356C249.299 176 265.465 159.834 265.465 139.891C265.465 119.949 249.299 103.783 229.356 103.783Z" fill="#FFBFDC"/>
<path d="M36.4501 124.366C56.4375 124.366 72.6405 108.163 72.6405 88.1757C72.6405 68.1883 56.4375 51.9854 36.4501 51.9854C16.4627 51.9854 0.259766 68.1883 0.259766 88.1757C0.259766 108.163 16.4627 124.366 36.4501 124.366Z" fill="#FF9671"/>
<path d="M243.632 0H125.165C105.223 0 89.0565 16.1664 89.0565 36.1086C89.0565 56.0509 105.223 72.2173 125.165 72.2173H243.632C263.574 72.2173 279.74 56.0509 279.74 36.1086C279.74 16.1664 263.574 0 243.632 0Z" fill="#FF5F00"/>
<path d="M163.218 70.771L192.12 106.953C193.583 108.495 194.486 110.483 194.686 112.599C194.843 114.419 194.466 116.246 193.599 117.854L172.673 147.916L167.239 145.293C166.847 137.823 168.449 130.383 171.88 123.737C173.631 120.422 175.831 117.364 178.417 114.65C176.069 113.354 173.699 111.94 171.308 110.41C159.614 102.897 149.142 93.6346 140.257 82.9461L163.218 70.771Z" fill="white"/>
<path d="M172.673 148.324C172.611 148.321 172.55 148.307 172.493 148.283L167.059 145.628C166.993 145.594 166.937 145.544 166.897 145.483C166.857 145.421 166.834 145.35 166.83 145.276C166.44 137.736 168.058 130.226 171.52 123.516C173.202 120.321 175.298 117.362 177.755 114.716C175.492 113.449 173.253 112.109 171.079 110.72C159.36 103.183 148.862 93.8994 139.947 83.1912C139.91 83.1429 139.884 83.0875 139.869 83.0283C139.855 82.9692 139.854 82.9077 139.865 82.848C139.876 82.7894 139.9 82.7341 139.936 82.686C139.971 82.6379 140.017 82.5984 140.069 82.5702L163.031 70.4278C163.113 70.3809 163.211 70.3659 163.304 70.3854C163.397 70.405 163.48 70.4578 163.537 70.534L192.439 106.716C193.86 108.204 194.774 110.104 195.047 112.144C195.32 114.183 194.939 116.257 193.959 118.066L173.008 148.161C172.969 148.213 172.919 148.255 172.86 148.284C172.802 148.312 172.738 148.326 172.673 148.324ZM167.606 144.998L172.509 147.393L193.231 117.625C194.116 115.963 194.453 114.064 194.195 112.199C193.937 110.334 193.096 108.598 191.793 107.239L163.08 71.2857L140.87 83.036C149.66 93.5149 159.982 102.606 171.488 110.001C173.792 111.472 176.178 112.894 178.572 114.226C178.627 114.255 178.674 114.297 178.709 114.348C178.745 114.4 178.768 114.458 178.777 114.52C178.789 114.581 178.786 114.645 178.767 114.705C178.748 114.765 178.715 114.819 178.67 114.863C176.114 117.547 173.942 120.571 172.215 123.851C168.843 130.371 167.253 137.666 167.606 144.998Z" fill="#242424"/>
<path d="M171.3 110.328C173.686 111.856 176.064 113.269 178.409 114.569C177.243 115.805 176.152 117.109 175.14 118.475C173.92 120.116 172.828 121.847 171.872 123.655C171.561 124.252 171.308 124.758 171.137 125.134C173.484 127.182 176.206 128.755 179.152 129.767C180.875 130.353 182.66 130.734 184.472 130.903L188.37 125.306L193.583 117.813C194.452 116.202 194.833 114.374 194.678 112.55C194.48 110.431 193.58 108.438 192.12 106.888L163.219 70.7056L140.266 82.8643C149.146 93.5515 159.612 102.814 171.3 110.328Z" fill="#242424"/>
<path d="M184.48 131.312C179.455 130.827 174.71 128.775 170.916 125.445C170.847 125.385 170.801 125.305 170.783 125.216C170.765 125.127 170.778 125.035 170.818 124.954C170.989 124.578 171.243 124.072 171.561 123.467C172.515 121.643 173.608 119.894 174.83 118.238C175.747 116.992 176.735 115.8 177.788 114.667C175.533 113.417 173.294 112.068 171.112 110.671C159.39 103.134 148.894 93.8444 139.988 83.1258C139.947 83.0794 139.918 83.0242 139.903 82.9647C139.887 82.9052 139.885 82.8429 139.898 82.7826C139.91 82.7233 139.935 82.6674 139.972 82.6193C140.009 82.5712 140.056 82.532 140.11 82.5048L148.911 77.8472L163.063 70.3624C163.147 70.3172 163.243 70.3032 163.336 70.3226C163.429 70.3421 163.512 70.3938 163.57 70.4686L192.472 106.651C193.984 108.257 194.918 110.321 195.127 112.518C195.289 114.42 194.891 116.329 193.983 118.009L188.745 125.543L185.984 129.506L184.848 131.14C184.806 131.197 184.751 131.243 184.686 131.273C184.622 131.304 184.551 131.317 184.48 131.312ZM171.643 125.028C175.213 128.074 179.618 129.974 184.284 130.478L185.281 129.04L188.043 125.077L193.256 117.576C194.076 116.047 194.431 114.311 194.277 112.583C194.078 110.562 193.216 108.663 191.826 107.182L163.112 71.2285C158.487 73.6635 153.871 76.1149 149.262 78.5826L140.903 83.0032C149.69 93.4851 160.012 102.576 171.521 109.968C173.833 111.447 176.219 112.869 178.605 114.193C178.659 114.223 178.706 114.265 178.742 114.316C178.777 114.367 178.8 114.425 178.809 114.487C178.822 114.548 178.818 114.612 178.8 114.672C178.781 114.732 178.748 114.786 178.703 114.83C177.536 116.054 176.445 117.347 175.435 118.703C174.236 120.327 173.162 122.04 172.223 123.827C172.003 124.301 171.806 124.701 171.643 125.028Z" fill="#242424"/>
<path d="M167.239 145.292L163.799 150.457C163.385 151.074 163.203 151.817 163.283 152.555C163.364 153.294 163.703 153.98 164.24 154.493L175.312 165.116C177.46 166.608 180.057 167.315 182.666 167.118C182.771 166.157 182.66 165.186 182.339 164.274C181.73 162.687 180.542 161.391 179.013 160.646C176.916 156.397 174.813 152.154 172.705 147.915L167.239 145.292Z" fill="white"/>
<path d="M181.808 167.551C179.402 167.555 177.052 166.822 175.075 165.451L163.954 154.755C163.35 154.173 162.969 153.399 162.878 152.565C162.787 151.732 162.992 150.893 163.456 150.195L166.896 145.031C166.952 144.949 167.036 144.891 167.132 144.865C167.227 144.84 167.329 144.849 167.419 144.892L172.852 147.548C172.932 147.587 172.997 147.65 173.04 147.728L179.291 160.344C180.854 161.145 182.065 162.495 182.691 164.135C183.037 165.103 183.157 166.137 183.042 167.159C183.031 167.254 182.988 167.342 182.919 167.409C182.851 167.476 182.761 167.518 182.666 167.526L181.808 167.551ZM167.378 145.783L164.109 150.645C163.752 151.184 163.595 151.832 163.665 152.475C163.735 153.118 164.028 153.717 164.493 154.166L175.565 164.789C176.565 165.467 177.669 165.978 178.834 166.301C179.936 166.611 181.081 166.743 182.225 166.693C182.267 165.908 182.153 165.122 181.89 164.38C181.317 162.893 180.202 161.678 178.768 160.981C178.689 160.94 178.626 160.874 178.589 160.793L172.338 148.185L167.378 145.783Z" fill="#242424"/>
<path d="M174.511 151.584C174.048 151.327 173.529 151.184 172.999 151.168C172.482 151.173 171.971 151.286 171.5 151.5C171.028 151.714 170.607 152.023 170.262 152.41" fill="white"/>
<path d="M170.262 152.818C170.184 152.815 170.108 152.79 170.043 152.747C169.979 152.703 169.928 152.641 169.896 152.57C169.864 152.498 169.854 152.419 169.865 152.342C169.876 152.264 169.909 152.191 169.96 152.132C170.342 151.701 170.812 151.356 171.337 151.119C171.862 150.883 172.432 150.76 173.008 150.759C173.603 150.78 174.185 150.939 174.707 151.225C174.803 151.277 174.873 151.365 174.904 151.469C174.935 151.573 174.923 151.685 174.871 151.78C174.845 151.828 174.81 151.869 174.768 151.903C174.726 151.937 174.678 151.962 174.627 151.977C174.523 152.008 174.41 151.996 174.315 151.944C173.908 151.72 173.455 151.594 172.991 151.576C172.528 151.576 172.07 151.674 171.647 151.864C171.224 152.054 170.847 152.332 170.54 152.679C170.506 152.72 170.463 152.753 170.415 152.777C170.368 152.801 170.316 152.815 170.262 152.818Z" fill="#242424"/>
<path d="M175.614 154.077C175.151 153.819 174.633 153.676 174.103 153.66C173.586 153.665 173.076 153.777 172.604 153.99C172.133 154.202 171.711 154.51 171.365 154.894" fill="white"/>
<path d="M171.365 155.302C171.315 155.303 171.266 155.294 171.22 155.276C171.173 155.258 171.131 155.231 171.096 155.196C171.057 155.159 171.027 155.114 171.007 155.065C170.986 155.016 170.975 154.963 170.975 154.91C170.975 154.857 170.986 154.804 171.007 154.755C171.027 154.706 171.057 154.661 171.096 154.624C171.482 154.198 171.952 153.856 172.476 153.62C173.001 153.384 173.568 153.258 174.143 153.251C174.738 153.273 175.32 153.432 175.843 153.717C175.89 153.743 175.932 153.778 175.966 153.82C175.999 153.861 176.025 153.909 176.04 153.961C176.055 154.013 176.06 154.067 176.054 154.12C176.048 154.174 176.032 154.226 176.006 154.273C175.981 154.32 175.946 154.362 175.904 154.395C175.862 154.429 175.814 154.454 175.762 154.47C175.711 154.485 175.657 154.49 175.603 154.484C175.55 154.478 175.498 154.462 175.451 154.436C175.046 154.209 174.591 154.083 174.127 154.068C173.664 154.068 173.205 154.166 172.783 154.356C172.36 154.547 171.983 154.824 171.676 155.172C171.637 155.215 171.588 155.249 171.535 155.271C171.481 155.294 171.423 155.304 171.365 155.302Z" fill="#242424"/>
<path d="M176.636 156.569C176.172 156.311 175.654 156.168 175.124 156.152C174.607 156.157 174.097 156.269 173.626 156.482C173.155 156.694 172.733 157.002 172.387 157.386" fill="white"/>
<path d="M172.387 157.794C172.337 157.796 172.287 157.787 172.241 157.768C172.195 157.75 172.153 157.723 172.117 157.688C172.079 157.65 172.048 157.605 172.028 157.555C172.007 157.506 171.996 157.452 171.996 157.398C171.996 157.344 172.007 157.291 172.028 157.241C172.048 157.191 172.079 157.146 172.117 157.108C172.503 156.682 172.973 156.341 173.498 156.106C174.022 155.871 174.59 155.748 175.165 155.744C175.76 155.761 176.343 155.921 176.864 156.209C176.96 156.261 177.031 156.349 177.061 156.453C177.092 156.557 177.08 156.67 177.028 156.765C177.002 156.812 176.967 156.854 176.925 156.888C176.884 156.921 176.835 156.947 176.784 156.962C176.68 156.992 176.568 156.98 176.472 156.928C176.066 156.696 175.608 156.57 175.14 156.561C174.677 156.56 174.219 156.658 173.796 156.849C173.373 157.039 172.996 157.317 172.689 157.664C172.651 157.706 172.604 157.739 172.552 157.762C172.5 157.784 172.443 157.795 172.387 157.794Z" fill="#242424"/>
<path d="M182.633 167.118C182.486 167.649 182.347 168.188 182.208 168.752C181.155 168.949 180.077 168.982 179.014 168.85C177.402 168.638 175.861 168.057 174.511 167.151C170.453 162.847 166.386 158.557 162.312 154.281L163.268 151.829L175.312 165.157C177.46 166.649 180.057 167.356 182.666 167.159L182.633 167.118Z" fill="#242424"/>
<path d="M180.305 169.308C179.857 169.305 179.409 169.278 178.964 169.226C177.288 169.004 175.686 168.397 174.282 167.453C174.257 167.438 174.235 167.419 174.217 167.396L162.017 154.559C161.966 154.503 161.93 154.433 161.914 154.359C161.898 154.284 161.903 154.206 161.927 154.134L162.883 151.642C162.908 151.576 162.95 151.518 163.005 151.473C163.059 151.429 163.125 151.399 163.194 151.388C163.262 151.373 163.333 151.376 163.399 151.397C163.465 151.419 163.524 151.458 163.57 151.511L175.582 164.805C176.577 165.495 177.682 166.012 178.85 166.333C180.064 166.674 181.327 166.801 182.584 166.709C182.649 166.701 182.716 166.71 182.776 166.736C182.836 166.762 182.889 166.804 182.927 166.856C182.97 166.905 183 166.963 183.014 167.026C183.029 167.089 183.027 167.154 183.009 167.216L182.584 168.85C182.565 168.925 182.524 168.993 182.468 169.047C182.412 169.1 182.342 169.137 182.266 169.153C181.618 169.26 180.961 169.312 180.305 169.308ZM174.773 166.799C176.059 167.67 177.531 168.229 179.071 168.433C180 168.568 180.944 168.568 181.873 168.433L182.094 167.616C180.933 167.643 179.774 167.5 178.654 167.191C177.374 166.841 176.164 166.274 175.075 165.516C175.05 165.502 175.027 165.482 175.01 165.459L163.406 152.622L162.785 154.256L174.773 166.799Z" fill="#242424"/>
<path d="M180.198 137.522C180.13 137.521 180.063 137.504 180.002 137.473L168.685 131.516C168.589 131.465 168.516 131.378 168.484 131.274C168.452 131.169 168.463 131.057 168.514 130.96C168.564 130.864 168.652 130.792 168.756 130.759C168.86 130.727 168.973 130.738 169.069 130.789L180.386 136.745C180.482 136.797 180.553 136.885 180.585 136.988C180.617 137.092 180.607 137.204 180.558 137.301C180.524 137.367 180.472 137.423 180.409 137.461C180.345 137.5 180.273 137.521 180.198 137.522Z" fill="#242424"/>
<path d="M171.365 147.433C171.29 147.432 171.216 147.409 171.153 147.368C171.107 147.34 171.068 147.304 171.037 147.261C171.005 147.218 170.983 147.169 170.971 147.118C170.959 147.066 170.957 147.012 170.966 146.96C170.975 146.907 170.994 146.857 171.022 146.812L177.722 135.781C177.75 135.735 177.787 135.694 177.83 135.662C177.874 135.63 177.923 135.607 177.975 135.594C178.028 135.581 178.082 135.579 178.136 135.587C178.189 135.595 178.24 135.614 178.286 135.642C178.378 135.7 178.444 135.791 178.47 135.896C178.496 136.001 178.48 136.113 178.425 136.206L171.692 147.237C171.657 147.294 171.609 147.341 171.552 147.375C171.495 147.409 171.431 147.429 171.365 147.433Z" fill="#242424"/>
<path d="M169.682 146.714C169.623 146.726 169.562 146.726 169.502 146.714C169.454 146.692 169.411 146.66 169.375 146.62C169.34 146.581 169.313 146.534 169.295 146.484C169.278 146.434 169.27 146.381 169.274 146.328C169.277 146.275 169.291 146.223 169.314 146.175L174.895 134.376C174.941 134.279 175.024 134.204 175.125 134.167C175.225 134.13 175.337 134.135 175.434 134.18C175.483 134.203 175.528 134.235 175.564 134.275C175.6 134.315 175.629 134.362 175.647 134.412C175.665 134.463 175.673 134.517 175.67 134.571C175.667 134.626 175.654 134.678 175.631 134.727L170.058 146.477C170.024 146.548 169.971 146.608 169.904 146.65C169.838 146.692 169.761 146.714 169.682 146.714Z" fill="#242424"/>
<path d="M168.244 146.159H168.129C168.027 146.126 167.94 146.056 167.888 145.961C167.837 145.867 167.823 145.756 167.852 145.652L171.61 132.701C171.625 132.649 171.65 132.601 171.684 132.559C171.718 132.517 171.759 132.483 171.806 132.457C171.853 132.431 171.905 132.415 171.958 132.409C172.012 132.403 172.066 132.408 172.117 132.423C172.169 132.437 172.218 132.461 172.26 132.495C172.303 132.528 172.338 132.57 172.364 132.617C172.39 132.664 172.406 132.716 172.411 132.77C172.417 132.824 172.411 132.878 172.395 132.929L168.636 145.881C168.608 145.963 168.556 146.034 168.485 146.084C168.415 146.133 168.33 146.16 168.244 146.159Z" fill="#242424"/>
<path d="M182.004 134.923C181.948 134.935 181.889 134.935 181.833 134.923L169.502 129.114C169.404 129.067 169.328 128.983 169.291 128.88C169.254 128.778 169.26 128.665 169.306 128.566C169.353 128.468 169.437 128.391 169.539 128.355C169.642 128.318 169.755 128.323 169.854 128.37L182.176 134.18C182.225 134.203 182.269 134.235 182.305 134.275C182.342 134.315 182.37 134.362 182.388 134.412C182.407 134.463 182.415 134.517 182.412 134.572C182.409 134.626 182.395 134.678 182.372 134.727C182.335 134.791 182.28 134.842 182.216 134.877C182.151 134.911 182.078 134.928 182.004 134.923Z" fill="#242424"/>
<path d="M59.1743 70.248L30.2727 106.438C28.9011 107.863 28.0192 109.688 27.7547 111.648C27.4903 113.608 27.857 115.601 28.8019 117.339L49.7202 147.393L55.1622 144.745C55.5444 137.288 53.9399 129.864 50.5128 123.23C48.764 119.912 46.5641 116.851 43.9758 114.136C46.3128 112.836 48.6906 111.431 51.0848 109.895C62.7786 102.382 73.2507 93.12 82.1354 82.4313L59.1743 70.248Z" fill="white"/>
<path d="M49.7202 147.801C49.6545 147.802 49.5896 147.787 49.5312 147.757C49.4728 147.727 49.4226 147.683 49.3851 147.629L28.4668 117.576C27.4682 115.756 27.0763 113.666 27.3482 111.608C27.6201 109.551 28.5416 107.634 29.9785 106.136L58.8556 69.9783C58.9161 69.9042 59.0004 69.8531 59.0941 69.8338C59.1879 69.8144 59.2854 69.828 59.3704 69.8721L82.3234 82.0145C82.3774 82.044 82.4243 82.0848 82.461 82.1342C82.4977 82.1835 82.5232 82.2403 82.5358 82.3005C82.5476 82.3608 82.5456 82.423 82.5301 82.4824C82.5145 82.5418 82.4857 82.5969 82.4459 82.6437C73.5362 93.3592 63.0368 102.646 51.3135 110.181C49.1482 111.578 46.9011 112.918 44.6458 114.185C47.0985 116.829 49.192 119.785 50.8723 122.977C54.3431 129.687 55.9621 137.201 55.5626 144.745C55.5616 144.819 55.5396 144.892 55.4991 144.954C55.4586 145.016 55.4013 145.065 55.3338 145.096L49.9408 147.744C49.8754 147.786 49.798 147.806 49.7202 147.801ZM59.2887 70.7709L30.5913 106.724C29.272 108.087 28.4219 109.836 28.1647 111.716C27.9076 113.595 28.2567 115.508 29.1613 117.175L49.8591 146.902L54.7618 144.516C55.1045 137.198 53.5151 129.919 50.1532 123.41C48.423 120.13 46.248 117.106 43.6898 114.422C43.6486 114.375 43.6177 114.321 43.5994 114.262C43.5811 114.202 43.5757 114.14 43.5836 114.078C43.5947 114.018 43.6186 113.96 43.6539 113.909C43.6891 113.858 43.7348 113.816 43.7878 113.784C46.1902 112.452 48.568 111.031 50.8805 109.552C62.3866 102.157 72.709 93.0661 81.4981 82.5865L59.2887 70.7709Z" fill="#242424"/>
<path d="M51.1011 109.813C48.7151 111.341 46.3373 112.755 43.9922 114.054C45.1641 115.285 46.2558 116.589 47.2607 117.96C48.4798 119.601 49.5725 121.333 50.5291 123.14C50.8396 123.737 51.0848 124.243 51.2645 124.611C48.9178 126.664 46.1918 128.238 43.2404 129.244C41.5172 129.829 39.7322 130.213 37.9209 130.388C37.8556 130.282 34.0968 124.889 34.0314 124.791C33.9661 124.693 28.9408 117.486 28.8182 117.298C27.9491 115.688 27.5686 113.859 27.7232 112.036C27.9267 109.921 28.8296 107.934 30.289 106.389L59.1906 70.2072L82.1354 82.3741C73.2536 93.0526 62.7873 102.306 51.1011 109.813Z" fill="#242424"/>
<path d="M37.9128 130.797C37.8485 130.797 37.7853 130.781 37.7284 130.751C37.6715 130.721 37.6227 130.678 37.586 130.625L33.819 125.216L28.4669 117.51C27.5455 115.82 27.1419 113.896 27.3066 111.978C27.5176 109.772 28.4577 107.699 29.9785 106.087L58.8557 69.9293C58.9171 69.8565 59.0013 69.8064 59.0946 69.7871C59.188 69.7678 59.2851 69.7805 59.3704 69.8231L73.5148 77.308L82.3234 81.9656C82.3774 81.995 82.4244 82.0358 82.4611 82.0852C82.4977 82.1346 82.5233 82.1914 82.5359 82.2516C82.546 82.3119 82.5432 82.3736 82.5277 82.4328C82.5122 82.4919 82.4843 82.5471 82.446 82.5947C73.5362 93.3172 63.0371 102.612 51.3136 110.156C49.1319 111.554 46.893 112.894 44.6459 114.152C45.6964 115.285 46.6838 116.474 47.6039 117.715C48.8227 119.374 49.9153 121.122 50.8724 122.944C51.191 123.549 51.4362 124.064 51.6159 124.44C51.6516 124.52 51.6614 124.61 51.6438 124.696C51.6262 124.783 51.5822 124.861 51.5179 124.922C47.7229 128.257 42.9743 130.312 37.9455 130.797H37.9128ZM59.2887 70.722L30.5996 106.675C29.1984 108.159 28.3353 110.069 28.1482 112.101C27.997 113.846 28.3636 115.597 29.2023 117.135L29.4883 117.543L34.5217 124.783L38.1498 129.988C39.8467 129.809 41.5185 129.442 43.1342 128.893C45.9369 127.94 48.5325 126.462 50.7825 124.538C50.6272 124.211 50.4229 123.81 50.186 123.361C48.4575 120.08 46.2823 117.055 43.7225 114.373C43.6813 114.326 43.6505 114.272 43.6322 114.213C43.6138 114.153 43.6084 114.091 43.6163 114.029C43.6258 113.968 43.6491 113.91 43.6845 113.859C43.7199 113.808 43.7664 113.766 43.8206 113.735C46.2066 112.412 48.5926 110.99 50.9132 109.503C62.4191 102.111 72.7392 93.0195 81.5226 82.5376L73.1635 78.1169L59.2887 70.722Z" fill="#242424"/>
<path d="M55.1622 144.745L58.6023 149.901C59.0143 150.519 59.1958 151.262 59.1151 152C59.0345 152.738 58.6967 153.424 58.161 153.938L47.089 164.56C44.9375 166.046 42.3421 166.749 39.7349 166.554C39.6293 165.596 39.7439 164.626 40.0699 163.719C40.68 162.133 41.8643 160.835 43.3874 160.082C45.4902 155.844 47.5929 151.601 49.6956 147.352L55.1622 144.745Z" fill="white"/>
<path d="M40.5929 167.036C40.3069 167.036 40.0209 167.036 39.7349 167.036C39.6397 167.031 39.5496 166.992 39.4807 166.926C39.4118 166.86 39.3686 166.772 39.3591 166.677C39.2397 165.655 39.36 164.62 39.7104 163.653C40.3394 162.015 41.5454 160.664 43.1015 159.854L49.3525 147.246C49.3929 147.164 49.4589 147.098 49.5404 147.058L54.9824 144.41C55.0703 144.366 55.1714 144.356 55.2663 144.381C55.3612 144.407 55.4434 144.467 55.4972 144.549L58.9373 149.705C59.4039 150.402 59.6105 151.24 59.5208 152.074C59.4312 152.908 59.0511 153.683 58.447 154.265L47.3669 164.887C45.3808 166.276 43.0166 167.024 40.5929 167.028V167.036ZM40.1435 166.219C42.5311 166.313 44.8848 165.631 46.8521 164.274L57.875 153.652C58.3426 153.205 58.6374 152.608 58.7077 151.965C58.7779 151.322 58.6191 150.675 58.2591 150.138L54.9906 145.276L49.998 147.728L43.7552 160.328C43.7147 160.409 43.6487 160.475 43.5672 160.516C42.1348 161.215 41.0219 162.433 40.454 163.923C40.1917 164.656 40.0832 165.434 40.1353 166.211L40.1435 166.219Z" fill="#242424"/>
<path d="M47.8817 151.07C48.3455 150.813 48.8636 150.67 49.3934 150.653C49.9102 150.658 50.4204 150.77 50.8916 150.982C51.3627 151.195 51.7847 151.503 52.1308 151.887" fill="white"/>
<path d="M52.1307 152.295C52.0739 152.296 52.0176 152.285 51.9655 152.262C51.9133 152.24 51.8666 152.206 51.8284 152.164C51.5213 151.817 51.144 151.539 50.7213 151.349C50.2987 151.159 49.8404 151.061 49.377 151.061C48.9094 151.072 48.4517 151.198 48.0451 151.429C47.9493 151.479 47.8379 151.49 47.7342 151.46C47.6306 151.429 47.5428 151.36 47.4894 151.266C47.4636 151.218 47.4473 151.167 47.4415 151.113C47.4357 151.06 47.4405 151.006 47.4557 150.954C47.4709 150.902 47.4961 150.854 47.5299 150.812C47.5638 150.77 47.6056 150.736 47.6529 150.71C48.1741 150.421 48.7569 150.262 49.3525 150.244C49.9286 150.245 50.498 150.368 51.0232 150.605C51.5485 150.841 52.0178 151.186 52.4003 151.617C52.4384 151.654 52.4686 151.699 52.4893 151.748C52.5099 151.797 52.5205 151.85 52.5205 151.903C52.5205 151.956 52.5099 152.009 52.4893 152.058C52.4686 152.107 52.4384 152.152 52.4003 152.189C52.3265 152.256 52.2305 152.294 52.1307 152.295Z" fill="#242424"/>
<path d="M46.7786 153.554C47.2479 153.303 47.7671 153.161 48.2984 153.137C48.8145 153.144 49.3236 153.257 49.7934 153.471C50.2633 153.685 50.6835 153.994 51.0276 154.379" fill="white"/>
<path d="M51.0275 154.787C50.9137 154.785 50.8053 154.738 50.7252 154.657C50.4153 154.312 50.0376 154.036 49.6157 153.845C49.1938 153.653 48.737 153.552 48.2738 153.545C47.8074 153.564 47.3516 153.689 46.9419 153.913C46.8961 153.94 46.8453 153.958 46.7925 153.965C46.7397 153.972 46.686 153.968 46.6348 153.953C46.5836 153.939 46.5359 153.914 46.4945 153.88C46.4532 153.847 46.4192 153.805 46.3944 153.758C46.3671 153.711 46.3494 153.66 46.3425 153.607C46.3355 153.553 46.3394 153.499 46.3539 153.447C46.3684 153.395 46.3932 153.347 46.4268 153.305C46.4605 153.263 46.5023 153.228 46.5497 153.202C47.0705 152.911 47.6531 152.749 48.2493 152.728C48.8247 152.733 49.3928 152.858 49.9175 153.094C50.4422 153.331 50.9121 153.673 51.2972 154.101C51.3514 154.16 51.3873 154.233 51.4005 154.311C51.4138 154.39 51.4037 154.471 51.3715 154.544C51.3394 154.617 51.2866 154.679 51.2197 154.722C51.1527 154.765 51.0746 154.788 50.9948 154.787H51.0275Z" fill="#242424"/>
<path d="M45.7654 156.046C46.228 155.786 46.7468 155.643 47.2771 155.629C47.7935 155.634 48.3033 155.747 48.7734 155.961C49.2435 156.175 49.6635 156.485 50.0062 156.871" fill="white"/>
<path d="M50.0062 157.28C49.949 157.279 49.8926 157.266 49.8406 157.242C49.7886 157.218 49.742 157.183 49.7039 157.141C49.3946 156.796 49.0167 156.52 48.5946 156.33C48.1725 156.141 47.7154 156.041 47.2525 156.038C46.7861 156.056 46.3302 156.182 45.9206 156.405C45.8262 156.448 45.7192 156.453 45.6212 156.419C45.5233 156.386 45.4417 156.316 45.3929 156.225C45.3442 156.134 45.3318 156.027 45.3585 155.927C45.3852 155.827 45.4488 155.741 45.5366 155.686C46.0549 155.398 46.635 155.238 47.228 155.221C47.8032 155.227 48.3708 155.352 48.8953 155.589C49.4198 155.825 49.8898 156.167 50.2759 156.593C50.3142 156.631 50.3446 156.677 50.3653 156.726C50.386 156.776 50.3967 156.829 50.3967 156.883C50.3967 156.937 50.386 156.991 50.3653 157.04C50.3446 157.09 50.3142 157.135 50.2759 157.173C50.2002 157.238 50.1054 157.275 50.0062 157.28Z" fill="#242424"/>
<path d="M39.7595 166.595L40.1926 168.229C41.2434 168.427 42.3184 168.46 43.3794 168.327C44.9927 168.117 46.5344 167.532 47.8817 166.619C51.951 162.338 56.0175 158.059 60.0813 153.783L59.1335 151.29L47.0891 164.626C44.9376 166.111 42.3422 166.815 39.735 166.619L39.7595 166.595Z" fill="#242424"/>
<path d="M42.0883 168.785C41.4277 168.786 40.7684 168.726 40.119 168.605C40.0429 168.593 39.972 168.558 39.9153 168.506C39.8586 168.454 39.8186 168.386 39.8003 168.311L39.3673 166.677C39.3501 166.613 39.3483 166.547 39.3621 166.483C39.3758 166.419 39.4047 166.36 39.4464 166.309C39.488 166.259 39.5411 166.219 39.6013 166.193C39.6615 166.168 39.727 166.157 39.7922 166.162C41.0488 166.257 42.3124 166.132 43.5264 165.794C44.6922 165.467 45.7964 164.951 46.7949 164.266L58.8311 151.012C58.8769 150.96 58.9357 150.92 59.0017 150.897C59.0676 150.874 59.1384 150.869 59.207 150.882C59.275 150.894 59.3386 150.924 59.3915 150.968C59.4445 151.013 59.4851 151.07 59.5093 151.135L60.4654 153.586C60.4936 153.659 60.5009 153.738 60.4864 153.815C60.472 153.891 60.4364 153.962 60.3837 154.019L48.184 166.856L48.1105 166.914C46.7075 167.856 45.1047 168.461 43.4284 168.679C42.9844 168.743 42.5368 168.778 42.0883 168.785ZM40.5194 167.845C41.4492 167.996 42.3959 168.013 43.3303 167.894C44.8658 167.682 46.3329 167.123 47.6202 166.26L59.6074 153.643L58.9864 152.009L47.3914 164.903L47.3179 164.969C45.2578 166.39 42.8007 167.122 40.2988 167.061L40.5194 167.845Z" fill="#242424"/>
<path d="M42.2027 136.999C42.1282 136.999 42.0551 136.979 41.9915 136.94C41.928 136.901 41.8766 136.845 41.8432 136.778C41.8175 136.732 41.8013 136.68 41.7956 136.628C41.7899 136.575 41.7948 136.521 41.8101 136.47C41.8253 136.419 41.8505 136.372 41.8842 136.331C41.918 136.29 41.9596 136.256 42.0066 136.231L53.3238 130.274C53.4205 130.224 53.5327 130.215 53.6365 130.247C53.7403 130.279 53.8274 130.35 53.8794 130.445C53.9285 130.541 53.938 130.652 53.9059 130.754C53.8738 130.857 53.8026 130.943 53.7078 130.993L42.3907 136.95C42.3334 136.982 42.2686 136.999 42.2027 136.999Z" fill="#242424"/>
<path d="M51.0276 146.927C50.9571 146.927 50.8877 146.909 50.8261 146.875C50.7645 146.841 50.7129 146.791 50.6762 146.731L43.9758 135.7C43.9299 135.608 43.9201 135.503 43.9482 135.404C43.9764 135.306 44.0405 135.221 44.1279 135.168C44.2152 135.115 44.3194 135.096 44.4199 135.116C44.5204 135.135 44.6098 135.192 44.6704 135.275L51.3789 146.306C51.4071 146.352 51.4259 146.403 51.4341 146.456C51.4424 146.51 51.44 146.564 51.4271 146.617C51.4142 146.669 51.391 146.718 51.3589 146.762C51.3268 146.805 51.2864 146.842 51.24 146.87C51.1761 146.909 51.1024 146.928 51.0276 146.927Z" fill="#242424"/>
<path d="M52.7191 146.191C52.6413 146.192 52.5649 146.171 52.4985 146.131C52.4321 146.09 52.3783 146.032 52.3432 145.963L46.7622 134.172C46.7171 134.073 46.7124 133.96 46.749 133.858C46.7856 133.756 46.8608 133.672 46.9584 133.624C47.0071 133.601 47.0601 133.587 47.1141 133.584C47.1681 133.581 47.2222 133.589 47.2731 133.608C47.324 133.626 47.3708 133.654 47.4108 133.691C47.4507 133.727 47.483 133.771 47.5058 133.82L53.0868 145.611C53.1102 145.66 53.1237 145.713 53.1265 145.767C53.1293 145.821 53.1214 145.875 53.1032 145.926C53.0849 145.977 53.0567 146.024 53.0203 146.064C52.9838 146.104 52.9397 146.136 52.8907 146.159C52.8364 146.181 52.7779 146.192 52.7191 146.191Z" fill="#242424"/>
<path d="M54.149 145.636C54.0609 145.634 53.9755 145.605 53.905 145.552C53.8346 145.5 53.7827 145.426 53.7568 145.342L49.998 132.398C49.983 132.345 49.9787 132.289 49.9853 132.233C49.992 132.178 50.0095 132.125 50.0368 132.076C50.0641 132.027 50.1007 131.985 50.1445 131.95C50.1883 131.916 50.2385 131.89 50.2922 131.875C50.3458 131.86 50.4019 131.856 50.4572 131.863C50.5126 131.869 50.566 131.887 50.6146 131.914C50.6631 131.942 50.7058 131.978 50.7403 132.022C50.7747 132.066 50.8001 132.116 50.8151 132.17L54.5739 145.113C54.5901 145.164 54.5957 145.219 54.5904 145.272C54.585 145.326 54.5689 145.378 54.543 145.425C54.517 145.473 54.4818 145.514 54.4393 145.548C54.3969 145.581 54.3482 145.605 54.2961 145.619C54.2496 145.639 54.1986 145.645 54.149 145.636Z" fill="#242424"/>
<path d="M40.3968 134.4C40.3042 134.401 40.2142 134.37 40.1416 134.312C40.0689 134.255 40.018 134.174 39.9971 134.084C39.9762 133.994 39.9866 133.899 40.0266 133.815C40.0665 133.732 40.1337 133.664 40.2171 133.624L52.5393 127.814C52.588 127.791 52.641 127.777 52.695 127.774C52.749 127.772 52.8031 127.78 52.854 127.798C52.9049 127.816 52.9517 127.844 52.9917 127.881C53.0316 127.917 53.0639 127.961 53.0867 128.01C53.11 128.058 53.1234 128.111 53.1261 128.164C53.1288 128.218 53.1208 128.271 53.1025 128.321C53.0842 128.372 53.0561 128.418 53.0197 128.457C52.9833 128.496 52.9394 128.528 52.8906 128.55L40.5684 134.359C40.5159 134.388 40.4566 134.402 40.3968 134.4Z" fill="#242424"/>
<path d="M207.294 4.2981H12.631V88.1839H207.294V4.2981Z" fill="white"/>
<path d="M207.286 88.5843H12.6228C12.5144 88.5843 12.4105 88.5412 12.3339 88.4646C12.2573 88.388 12.2142 88.2841 12.2142 88.1757V4.29809C12.2142 4.18973 12.2573 4.08579 12.3339 4.00917C12.4105 3.93255 12.5144 3.88953 12.6228 3.88953H207.286C207.394 3.88953 207.498 3.93255 207.575 4.00917C207.651 4.08579 207.694 4.18973 207.694 4.29809V88.1757C207.694 88.2841 207.651 88.388 207.575 88.4646C207.498 88.5412 207.394 88.5843 207.286 88.5843ZM13.0314 87.7671H206.877V4.74749H13.0314V87.7671Z" fill="#242424"/>
<path d="M211.38 0.416748H16.7167V84.3025H211.38V0.416748Z" fill="white"/>
<path d="M211.372 84.7029H16.7085C16.6001 84.7029 16.4962 84.6599 16.4196 84.5832C16.343 84.5066 16.2999 84.4027 16.2999 84.2943V0.41674C16.2999 0.308383 16.343 0.204445 16.4196 0.127824C16.4962 0.0512044 16.6001 0.00817871 16.7085 0.00817871H211.372C211.48 0.00817871 211.584 0.0512044 211.661 0.127824C211.737 0.204445 211.78 0.308383 211.78 0.41674V84.2943C211.78 84.4027 211.737 84.5066 211.661 84.5832C211.584 84.6599 211.48 84.7029 211.372 84.7029ZM17.117 83.8858H210.963V0.825301H17.117V83.8858Z" fill="#242424"/>
<path d="M32.6342 67.7312V37.5631H25.4271V31.4347H28.1481C32.7649 31.4347 35.2898 29.2203 36.6871 26.8833H49.0747V67.7394L32.6342 67.7312Z" fill="#242424"/>
<path d="M73.2451 68.3686C58.9537 68.3686 53.005 58.8818 53.005 47.3032C53.005 35.7246 58.9537 26.246 73.2451 26.246C87.5366 26.246 93.4853 35.7328 93.4853 47.3032C93.4853 58.8736 87.5284 68.3686 73.2451 68.3686ZM73.2451 36.3619C70.5895 36.3619 69.4537 38.895 69.4537 47.3032C69.4537 55.7114 70.5895 58.2445 73.2451 58.2445C75.9008 58.2445 77.0366 55.7196 77.0366 47.3032C77.0366 38.8868 75.9008 36.3619 73.2451 36.3619Z" fill="#242424"/>
<path d="M110.065 67.7313V60.0177L128.597 36.2394H110.759V25.6168H150.03V33.9024L132.388 56.9861H150.79V67.7313H110.065Z" fill="#242424"/>
<path d="M153.021 50.5064L158.904 47.6628V25.6005H175.974V39.3853L183.377 35.7982L185.591 40.3495L175.974 45.0316V56.3488H193.877V67.7313H158.904V53.3173L155.235 55.0904L153.021 50.5064Z" fill="#242424"/>
</g>
<defs>
<clipPath id="clip0_1005_6761">
<rect width="279.48" height="176" fill="white" transform="translate(0.259766)"/>
</clipPath>
</defs>
</svg>
