<svg width="32" height="32" viewBox="0 0 32 32" fill="none" xmlns="http://www.w3.org/2000/svg">
<circle cx="16" cy="16" r="15.5" stroke="#242424"/>
<path d="M12.592 13.76C12.688 13.408 12.8373 13.072 13.04 12.752C13.2427 12.432 13.4933 12.1547 13.792 11.92C14.0907 11.6853 14.432 11.4987 14.816 11.36C15.2 11.2213 15.6267 11.152 16.096 11.152C16.5653 11.152 16.9973 11.2267 17.392 11.376C17.7973 11.5147 18.144 11.7227 18.432 12C18.7307 12.2773 18.96 12.6133 19.12 13.008C19.2907 13.392 19.376 13.8347 19.376 14.336C19.376 14.6347 19.344 14.928 19.28 15.216C19.216 15.504 19.1147 15.776 18.976 16.032L14.224 20.768H19.552V22H12.624V20.832L17.744 15.696C17.9787 15.2053 18.096 14.7307 18.096 14.272C18.096 13.6 17.8933 13.104 17.488 12.784C17.0827 12.464 16.608 12.304 16.064 12.304C15.456 12.304 14.9547 12.48 14.56 12.832C14.176 13.1733 13.9093 13.6 13.76 14.112L12.592 13.76Z" fill="#242424"/>
</svg>
