<svg width="32" height="32" viewBox="0 0 32 32" fill="none" xmlns="http://www.w3.org/2000/svg">
<circle cx="16" cy="16" r="15.5" stroke="#242424"/>
<path d="M13.472 19.184C13.7813 19.8133 14.1173 20.2667 14.48 20.544C14.8427 20.8213 15.296 20.96 15.84 20.96C16.5227 20.96 17.056 20.768 17.44 20.384C17.824 20 18.016 19.4773 18.016 18.816C18.016 17.9413 17.6213 17.3493 16.832 17.04H14.944V15.904H16.704C17.4293 15.5307 17.792 14.9387 17.792 14.128C17.792 13.5627 17.6267 13.12 17.296 12.8C16.976 12.48 16.5173 12.32 15.92 12.32C15.4613 12.32 15.0347 12.4267 14.64 12.64C14.256 12.8533 13.936 13.2 13.68 13.68L12.656 13.104C13.0187 12.4533 13.488 11.968 14.064 11.648C14.64 11.3173 15.28 11.152 15.984 11.152C16.4533 11.152 16.88 11.2213 17.264 11.36C17.648 11.4987 17.9787 11.696 18.256 11.952C18.5333 12.1973 18.7467 12.496 18.896 12.848C19.0453 13.2 19.12 13.5893 19.12 14.016C19.12 14.56 18.9973 15.0347 18.752 15.44C18.5173 15.8453 18.192 16.1707 17.776 16.416C18.2773 16.64 18.6613 16.9707 18.928 17.408C19.2053 17.8347 19.344 18.352 19.344 18.96C19.344 19.4187 19.264 19.8453 19.104 20.24C18.944 20.624 18.7147 20.9547 18.416 21.232C18.1173 21.5093 17.7547 21.728 17.328 21.888C16.912 22.048 16.4427 22.128 15.92 22.128C15.12 22.128 14.4213 21.936 13.824 21.552C13.2373 21.168 12.7573 20.576 12.384 19.776L13.472 19.184Z" fill="#242424"/>
</svg>
