<svg width="135" height="40" viewBox="0 0 135 40" fill="none" xmlns="http://www.w3.org/2000/svg">
<path d="M130 0H5C2.23858 0 0 2.23858 0 5V35C0 37.7614 2.23858 40 5 40H130C132.761 40 135 37.7614 135 35V5C135 2.23858 132.761 0 130 0Z" fill="black"/>
<path d="M130 0.8C131.114 0.8 132.182 1.2425 132.97 2.03015C133.758 2.8178 134.2 3.88609 134.2 5V35C134.2 36.1139 133.758 37.1822 132.97 37.9698C132.182 38.7575 131.114 39.2 130 39.2H5C3.88609 39.2 2.8178 38.7575 2.03015 37.9698C1.2425 37.1822 0.8 36.1139 0.8 35V5C0.8 3.88609 1.2425 2.8178 2.03015 2.03015C2.8178 1.2425 3.88609 0.8 5 0.8H130ZM130 0H5C3.67392 0 2.40215 0.526784 1.46447 1.46447C0.526784 2.40215 0 3.67392 0 5V35C0 36.3261 0.526784 37.5979 1.46447 38.5355C2.40215 39.4732 3.67392 40 5 40H130C131.326 40 132.598 39.4732 133.536 38.5355C134.473 37.5979 135 36.3261 135 35V5C135 3.67392 134.473 2.40215 133.536 1.46447C132.598 0.526784 131.326 0 130 0Z" fill="black"/>
<path d="M68.14 21.75C67.2974 21.752 66.4744 22.0038 65.7749 22.4735C65.0755 22.9433 64.531 23.6099 64.2104 24.389C63.8898 25.1682 63.8075 26.025 63.9738 26.8509C64.1401 27.6769 64.5476 28.435 65.1448 29.0294C65.742 29.6237 66.502 30.0277 67.3287 30.1901C68.1555 30.3525 69.0118 30.2662 69.7895 29.9419C70.5671 29.6177 71.2311 29.0701 71.6976 28.3684C72.164 27.6668 72.412 26.8426 72.41 26C72.4181 25.438 72.3131 24.88 72.1012 24.3594C71.8892 23.8388 71.5746 23.3661 71.1762 22.9696C70.7778 22.573 70.3037 22.2607 69.7821 22.0512C69.2604 21.8417 68.702 21.7393 68.14 21.75ZM68.14 28.58C67.6236 28.6162 67.1082 28.4961 66.6609 28.2354C66.2137 27.9748 65.8552 27.5856 65.632 27.1185C65.4088 26.6514 65.3314 26.1279 65.4097 25.6162C65.4879 25.1045 65.7184 24.6281 66.0709 24.2491C66.4235 23.87 66.882 23.6058 67.3867 23.4908C67.8915 23.3758 68.4192 23.4153 68.9012 23.6041C69.3832 23.793 69.7972 24.1225 70.0895 24.5498C70.3818 24.977 70.5387 25.4824 70.54 26C70.5561 26.3281 70.5063 26.656 70.3937 26.9645C70.2811 27.273 70.1078 27.5558 69.8841 27.7962C69.6604 28.0367 69.3909 28.2299 69.0913 28.3645C68.7918 28.4992 68.4683 28.5724 68.14 28.58ZM58.82 21.75C57.9774 21.752 57.1544 22.0038 56.4549 22.4735C55.7555 22.9433 55.211 23.6099 54.8904 24.389C54.5698 25.1682 54.4875 26.025 54.6538 26.8509C54.8201 27.6769 55.2276 28.435 55.8248 29.0294C56.422 29.6237 57.182 30.0277 58.0087 30.1901C58.8355 30.3525 59.6918 30.2662 60.4695 29.9419C61.2471 29.6177 61.9111 29.0701 62.3776 28.3684C62.844 27.6668 63.0919 26.8426 63.09 26C63.0981 25.438 62.9931 24.88 62.7812 24.3594C62.5692 23.8388 62.2546 23.3661 61.8562 22.9696C61.4578 22.573 60.9837 22.2607 60.4621 22.0512C59.9404 21.8417 59.382 21.7393 58.82 21.75ZM58.82 28.58C58.3036 28.6162 57.7882 28.4961 57.3409 28.2354C56.8937 27.9748 56.5352 27.5856 56.312 27.1185C56.0888 26.6514 56.0114 26.1279 56.0897 25.6162C56.1679 25.1045 56.3984 24.6281 56.7509 24.2491C57.1035 23.87 57.562 23.6058 58.0667 23.4908C58.5715 23.3758 59.0992 23.4153 59.5812 23.6041C60.0632 23.793 60.4772 24.1225 60.7695 24.5498C61.0618 24.977 61.2187 25.4824 61.22 26C61.2361 26.3281 61.1863 26.656 61.0737 26.9645C60.9611 27.273 60.7878 27.5558 60.5641 27.7962C60.3404 28.0367 60.0709 28.2299 59.7713 28.3645C59.4718 28.4992 59.1483 28.5724 58.82 28.58ZM47.74 23.06V24.86H52.06C51.9922 25.7078 51.6398 26.5078 51.06 27.13C50.6266 27.5716 50.1054 27.9172 49.5301 28.1446C48.9547 28.3719 48.3381 28.476 47.72 28.45C46.4469 28.45 45.226 27.9443 44.3259 27.0442C43.4257 26.144 42.92 24.9231 42.92 23.65C42.92 22.377 43.4257 21.1561 44.3259 20.2559C45.226 19.3558 46.4469 18.85 47.72 18.85C48.9404 18.8319 50.1189 19.2954 51 20.14L52.27 18.87C51.674 18.2806 50.9663 17.8159 50.1884 17.5034C49.4106 17.1909 48.5782 17.0368 47.74 17.05C46.851 17.0154 45.9641 17.1607 45.1326 17.477C44.3011 17.7934 43.5419 18.2743 42.9007 18.8911C42.2595 19.5078 41.7494 20.2476 41.401 21.0662C41.0525 21.8848 40.8729 22.7654 40.8729 23.655C40.8729 24.5447 41.0525 25.4252 41.401 26.2438C41.7494 27.0625 42.2595 27.8023 42.9007 28.419C43.5419 29.0358 44.3011 29.5167 45.1326 29.8331C45.9641 30.1494 46.851 30.2946 47.74 30.26C48.5954 30.2942 49.4484 30.147 50.2429 29.8282C51.0374 29.5094 51.7555 29.0261 52.35 28.41C53.4001 27.2565 53.9596 25.7392 53.91 24.18C53.9136 23.8048 53.8834 23.4299 53.82 23.06H47.74ZM93.05 24.46C92.7892 23.6928 92.3015 23.0228 91.6515 22.5389C91.0015 22.055 90.2198 21.7799 89.41 21.75C88.863 21.749 88.3216 21.8601 87.8192 22.0766C87.3169 22.293 86.8643 22.6102 86.4894 23.0086C86.1145 23.4069 85.8252 23.8779 85.6396 24.3924C85.4539 24.907 85.3758 25.4541 85.41 26C85.4014 26.9129 85.6884 27.804 86.2281 28.5403C86.7678 29.2766 87.5312 29.8185 88.4042 30.0852C89.2773 30.3518 90.2132 30.3289 91.0722 30.0198C91.9311 29.7106 92.667 29.1319 93.17 28.37L91.72 27.37C91.5038 27.7303 91.1972 28.0278 90.8306 28.2331C90.464 28.4383 90.0501 28.5441 89.63 28.54C89.1965 28.5579 88.7678 28.4443 88.4002 28.2141C88.0325 27.9838 87.7431 27.6478 87.57 27.25L93.26 24.9L93.05 24.46ZM87.25 25.88C87.2297 25.5694 87.2716 25.2579 87.3733 24.9637C87.4749 24.6694 87.6342 24.3985 87.8419 24.1666C88.0495 23.9347 88.3014 23.7466 88.5827 23.6132C88.8639 23.4799 89.169 23.404 89.48 23.39C89.8022 23.3704 90.123 23.4462 90.4023 23.6081C90.6816 23.77 90.9069 24.0107 91.05 24.3L87.25 25.88ZM82.63 30H84.5V17.5H82.63V30ZM79.57 22.7H79.5C79.2206 22.3819 78.8759 22.1278 78.4893 21.9553C78.1027 21.7827 77.6833 21.6956 77.26 21.7C76.1672 21.753 75.1366 22.2245 74.382 23.0166C73.6273 23.8088 73.2063 24.8609 73.2063 25.955C73.2063 27.0491 73.6273 28.1013 74.382 28.8935C75.1366 29.6856 76.1672 30.1571 77.26 30.21C77.6839 30.2185 78.1046 30.1333 78.4918 29.9605C78.879 29.7876 79.2233 29.5314 79.5 29.21H79.57V29.82C79.57 31.45 78.7 32.32 77.3 32.32C76.8323 32.3098 76.3782 32.1607 75.9954 31.8919C75.6126 31.623 75.3183 31.2465 75.15 30.81L73.53 31.48C73.8295 32.2323 74.3502 32.8759 75.0234 33.3259C75.6965 33.7758 76.4904 34.0109 77.3 34C79.49 34 81.3 32.71 81.3 29.57V22H79.57V22.7ZM77.42 28.58C76.7648 28.5392 76.1498 28.2501 75.7003 27.7717C75.2508 27.2933 75.0005 26.6615 75.0005 26.005C75.0005 25.3486 75.2508 24.7168 75.7003 24.2384C76.1498 23.76 76.7648 23.4709 77.42 23.43C77.7402 23.4439 78.0544 23.522 78.3438 23.6597C78.6333 23.7974 78.8921 23.9919 79.1048 24.2317C79.3175 24.4715 79.4798 24.7516 79.5821 25.0554C79.6843 25.3592 79.7244 25.6804 79.7 26C79.7273 26.3207 79.6892 26.6436 79.5881 26.9492C79.4871 27.2548 79.3251 27.5367 79.1119 27.7778C78.8988 28.019 78.639 28.2144 78.3482 28.3523C78.0574 28.4902 77.7416 28.5677 77.42 28.58ZM101.81 17.5H97.33V30H99.2V25.26H101.81C102.343 25.2983 102.878 25.2264 103.382 25.0488C103.886 24.8711 104.348 24.5916 104.739 24.2275C105.13 23.8635 105.442 23.4228 105.655 22.9329C105.869 22.443 105.979 21.9144 105.979 21.38C105.979 20.8457 105.869 20.3171 105.655 19.8272C105.442 19.3373 105.13 18.8966 104.739 18.5326C104.348 18.1685 103.886 17.889 103.382 17.7113C102.878 17.5337 102.343 17.4618 101.81 17.5ZM101.81 23.5H99.2V19.24H101.85C102.131 19.24 102.409 19.2954 102.669 19.4029C102.929 19.5105 103.164 19.6681 103.363 19.8668C103.562 20.0656 103.72 20.3015 103.827 20.5611C103.935 20.8207 103.99 21.099 103.99 21.38C103.99 21.6611 103.935 21.9394 103.827 22.199C103.72 22.4586 103.562 22.6945 103.363 22.8933C103.164 23.092 102.929 23.2496 102.669 23.3571C102.409 23.4647 102.131 23.52 101.85 23.52L101.81 23.5ZM113.35 21.71C112.669 21.6681 111.991 21.8266 111.399 22.1661C110.807 22.5055 110.328 23.011 110.02 23.62L111.67 24.31C111.837 24.0094 112.087 23.7636 112.39 23.6021C112.694 23.4406 113.038 23.3704 113.38 23.4C113.617 23.3723 113.858 23.3921 114.088 23.4584C114.317 23.5246 114.531 23.6359 114.718 23.7858C114.904 23.9356 115.058 24.1211 115.172 24.3313C115.286 24.5415 115.356 24.7722 115.38 25.01V25.13C114.779 24.814 114.109 24.6492 113.43 24.65C111.65 24.65 109.83 25.65 109.83 27.47C109.848 27.8569 109.943 28.2362 110.11 28.5856C110.277 28.9349 110.513 29.2471 110.803 29.5037C111.093 29.7602 111.431 29.9558 111.799 30.0788C112.166 30.2019 112.554 30.2499 112.94 30.22C113.409 30.246 113.877 30.1467 114.295 29.9323C114.713 29.7179 115.067 29.3962 115.32 29H115.38V30H117.18V25.19C117.18 23 115.52 21.73 113.39 21.73L113.35 21.71ZM113.12 28.56C112.51 28.56 111.66 28.25 111.66 27.5C111.66 26.5 112.72 26.16 113.66 26.16C114.254 26.1454 114.841 26.2904 115.36 26.58C115.297 27.1231 115.04 27.625 114.635 27.9928C114.231 28.3605 113.707 28.5691 113.16 28.58L113.12 28.56ZM123.74 22L121.6 27.42H121.54L119.32 22H117.32L120.65 29.58L118.75 33.79H120.7L125.82 22H123.74ZM106.94 30H108.8V17.5H106.94V30Z" fill="white"/>
<path d="M10.44 7.53997C10.1105 7.92959 9.94233 8.43043 9.97 8.93997V31.06C9.93597 31.5704 10.1049 32.0735 10.44 32.46L10.51 32.54L22.9 20.15V19.85L10.51 7.46997L10.44 7.53997Z" fill="url(#paint0_linear_1005_6687)"/>
<path d="M27 24.28L22.9 20.15V19.85L27 15.72L27.09 15.78L32 18.56C33.4 19.35 33.4 20.65 32 21.45L27.11 24.23L27 24.28Z" fill="url(#paint1_linear_1005_6687)"/>
<path d="M27.12 24.22L22.9 20L10.44 32.46C10.7226 32.7115 11.0843 32.8562 11.4624 32.869C11.8404 32.8818 12.2111 32.7619 12.51 32.53L27.12 24.22Z" fill="url(#paint2_linear_1005_6687)"/>
<path d="M27.12 15.78L12.51 7.47997C12.213 7.24488 11.8427 7.12203 11.4641 7.133C11.0855 7.14397 10.7229 7.28808 10.44 7.53997L22.9 20L27.12 15.78Z" fill="url(#paint3_linear_1005_6687)"/>
<path opacity="0.2" d="M27 24.13L12.51 32.38C12.2219 32.5974 11.8709 32.715 11.51 32.715C11.1491 32.715 10.7981 32.5974 10.51 32.38L10.44 32.45L10.51 32.53C10.7981 32.7474 11.1491 32.865 11.51 32.865C11.8709 32.865 12.2219 32.7474 12.51 32.53L27.12 24.22L27 24.13Z" fill="black"/>
<path opacity="0.12" d="M10.44 32.32C10.1188 31.9234 9.96138 31.419 10 30.91V31.06C9.96597 31.5704 10.1349 32.0736 10.47 32.46L10.54 32.39L10.44 32.32Z" fill="black"/>
<path opacity="0.12" d="M32 21.3L27 24.13L27.09 24.22L32 21.44C32.2898 21.3174 32.5413 21.119 32.7278 20.8656C32.9143 20.6122 33.0291 20.3132 33.06 20C32.9975 20.2846 32.869 20.5505 32.6849 20.7763C32.5007 21.0021 32.2662 21.1815 32 21.3Z" fill="black"/>
<path opacity="0.25" d="M12.51 7.61998L32 18.7C32.2661 18.8185 32.5007 18.9979 32.6848 19.2237C32.869 19.4495 32.9975 19.7154 33.06 20C33.0291 19.6868 32.9143 19.3878 32.7278 19.1344C32.5412 18.881 32.2898 18.6825 32 18.56L12.51 7.47998C11.12 6.67998 9.96997 7.33998 9.96997 8.93998V9.08998C9.99997 7.48998 11.12 6.82998 12.51 7.61998Z" fill="white"/>
<path d="M42.17 13H41.4V7.00003H43.45C43.9397 6.99163 44.4132 7.1746 44.77 7.51003C44.9441 7.67367 45.0828 7.87121 45.1776 8.09049C45.2724 8.30977 45.3213 8.54614 45.3213 8.78503C45.3213 9.02393 45.2724 9.2603 45.1776 9.47958C45.0828 9.69885 44.9441 9.89639 44.77 10.06C44.4132 10.3955 43.9397 10.5784 43.45 10.57H42.17V13ZM42.17 9.83003H43.46C43.6055 9.8367 43.7507 9.81152 43.8854 9.75625C44.0201 9.70098 44.1412 9.61695 44.24 9.51003C44.3384 9.41661 44.4167 9.30416 44.4702 9.17953C44.5237 9.05489 44.5513 8.92067 44.5513 8.78503C44.5513 8.6494 44.5237 8.51518 44.4702 8.39054C44.4167 8.2659 44.3384 8.15345 44.24 8.06003C44.1412 7.95312 44.0201 7.86909 43.8854 7.81381C43.7507 7.75854 43.6055 7.73336 43.46 7.74003H42.17V9.83003Z" fill="white" stroke="white" stroke-width="0.2" stroke-miterlimit="10"/>
<path d="M51.2 12.22C50.9112 12.509 50.5682 12.7383 50.1907 12.8948C49.8133 13.0512 49.4086 13.1318 49 13.1318C48.5914 13.1318 48.1868 13.0512 47.8093 12.8948C47.4318 12.7383 47.0888 12.509 46.8 12.22C46.2347 11.619 45.9199 10.825 45.9199 9.99996C45.9199 9.1749 46.2347 8.38091 46.8 7.77996C47.0888 7.4909 47.4318 7.26159 47.8093 7.10514C48.1868 6.94869 48.5914 6.86816 49 6.86816C49.4086 6.86816 49.8133 6.94869 50.1907 7.10514C50.5682 7.26159 50.9112 7.4909 51.2 7.77996C51.4889 8.07196 51.7165 8.41879 51.8693 8.80004C52.0221 9.1813 52.0972 9.58927 52.09 9.99996C52.1018 10.4113 52.0289 10.8206 51.8758 11.2025C51.7227 11.5844 51.4927 11.9307 51.2 12.22ZM47.37 11.72C47.5807 11.9388 47.8341 12.1121 48.1145 12.229C48.3948 12.346 48.6962 12.4042 49 12.4C49.304 12.406 49.606 12.3486 49.8866 12.2316C50.1672 12.1145 50.4204 11.9403 50.63 11.72C51.0615 11.2511 51.301 10.6372 51.301 9.99996C51.301 9.36276 51.0615 8.74883 50.63 8.27996C50.4204 8.05967 50.1672 7.88543 49.8866 7.76836C49.606 7.65128 49.304 7.59393 49 7.59996C48.6962 7.59575 48.3948 7.65392 48.1145 7.77089C47.8341 7.88785 47.5807 8.06112 47.37 8.27996C46.9449 8.75197 46.7096 9.36471 46.7096 9.99996C46.7096 10.6352 46.9449 11.248 47.37 11.72Z" fill="white" stroke="white" stroke-width="0.2" stroke-miterlimit="10"/>
<path d="M53.17 13.0001V7.00006H55.34C55.7897 6.99651 56.2246 7.16049 56.56 7.46006C56.7242 7.60687 56.8548 7.78741 56.9428 7.98934C57.0308 8.19127 57.0742 8.40982 57.07 8.63006C57.0767 8.90001 56.9999 9.16545 56.85 9.39006C56.7048 9.60699 56.4999 9.7772 56.26 9.88006C56.5515 9.97317 56.8067 10.155 56.99 10.4001C57.178 10.6429 57.2768 10.943 57.27 11.2501C57.2751 11.4806 57.2294 11.7094 57.136 11.9203C57.0427 12.1311 56.9041 12.3188 56.73 12.4701C56.3865 12.7924 55.9309 12.9682 55.46 12.9601L53.17 13.0001ZM53.94 9.57006H55.34C55.4708 9.5762 55.6014 9.5534 55.7224 9.50327C55.8434 9.45314 55.9518 9.37692 56.04 9.28006C56.2033 9.11052 56.2962 8.88539 56.3 8.65006C56.2999 8.41589 56.2105 8.19059 56.05 8.02006C55.964 7.92657 55.8585 7.85305 55.741 7.80468C55.6235 7.7563 55.4969 7.73425 55.37 7.74006H53.94V9.57006ZM53.94 12.2601H55.49C55.6256 12.266 55.7608 12.2412 55.8855 12.1876C56.0102 12.1339 56.1211 12.0527 56.21 11.9501C56.3004 11.8624 56.3723 11.7575 56.4214 11.6416C56.4705 11.5256 56.4958 11.401 56.4958 11.2751C56.4958 11.1491 56.4705 11.0245 56.4214 10.9085C56.3723 10.7926 56.3004 10.6877 56.21 10.6001C56.1147 10.5001 55.9998 10.4209 55.8724 10.3676C55.7451 10.3142 55.6081 10.2878 55.47 10.2901H53.94V12.2601Z" fill="white" stroke="white" stroke-width="0.2" stroke-miterlimit="10"/>
<path d="M58.31 13V7H59.08V13H58.31Z" fill="white" stroke="white" stroke-width="0.2" stroke-miterlimit="10"/>
<path d="M64 7.74H61.23V9.64H63.69V10.36H61.23V12.26H64V13H60.5V7H64V7.74Z" fill="white" stroke="white" stroke-width="0.2" stroke-miterlimit="10"/>
<path d="M65.17 13V7.00003H67.17C67.6596 6.99163 68.1332 7.1746 68.49 7.51003C68.6718 7.66899 68.8163 7.86615 68.9131 8.08742C69.0099 8.30869 69.0567 8.54861 69.05 8.79003C69.0498 9.19704 68.9044 9.59062 68.64 9.90003C68.3845 10.2079 68.0318 10.4195 67.64 10.5L69.32 13H68.41L66.79 10.57H65.94V13H65.17ZM65.94 9.85003H67.18C67.4722 9.85597 67.7554 9.74844 67.97 9.55003C68.0761 9.45429 68.1605 9.33692 68.2174 9.20582C68.2743 9.07472 68.3025 8.93294 68.3 8.79003C68.3034 8.65508 68.2795 8.52083 68.2297 8.39537C68.1798 8.26991 68.1051 8.15584 68.01 8.06003C67.9111 7.95312 67.7901 7.86909 67.6554 7.81381C67.5206 7.75854 67.3755 7.73336 67.23 7.74003H65.94V9.85003Z" fill="white" stroke="white" stroke-width="0.2" stroke-miterlimit="10"/>
<path d="M69.85 13V12.2L73 7.74H70V7H74V7.8L70.81 12.26H74V13H69.85Z" fill="white" stroke="white" stroke-width="0.2" stroke-miterlimit="10"/>
<path d="M76.75 13V12.2L79.94 7.74H76.88V7H80.88V7.8L77.69 12.26H80.91V13H76.75Z" fill="white" stroke="white" stroke-width="0.2" stroke-miterlimit="10"/>
<defs>
<linearGradient id="paint0_linear_1005_6687" x1="21.8" y1="8.70997" x2="5.02" y2="25.49" gradientUnits="userSpaceOnUse">
<stop stop-color="#00A0FF"/>
<stop offset="0.01" stop-color="#00A1FF"/>
<stop offset="0.26" stop-color="#00BEFF"/>
<stop offset="0.51" stop-color="#00D2FF"/>
<stop offset="0.76" stop-color="#00DFFF"/>
<stop offset="1" stop-color="#00E3FF"/>
</linearGradient>
<linearGradient id="paint1_linear_1005_6687" x1="33.83" y1="20" x2="9.64003" y2="20" gradientUnits="userSpaceOnUse">
<stop stop-color="#FFE000"/>
<stop offset="0.41" stop-color="#FFBD00"/>
<stop offset="0.78" stop-color="#FFA500"/>
<stop offset="1" stop-color="#FF9C00"/>
</linearGradient>
<linearGradient id="paint2_linear_1005_6687" x1="24.83" y1="22.3" x2="2.07" y2="45.05" gradientUnits="userSpaceOnUse">
<stop stop-color="#FF3A44"/>
<stop offset="1" stop-color="#C31162"/>
</linearGradient>
<linearGradient id="paint3_linear_1005_6687" x1="7.3" y1="0.17997" x2="17.46" y2="10.34" gradientUnits="userSpaceOnUse">
<stop stop-color="#32A071"/>
<stop offset="0.07" stop-color="#2DA771"/>
<stop offset="0.48" stop-color="#15CF74"/>
<stop offset="0.8" stop-color="#06E775"/>
<stop offset="1" stop-color="#00F076"/>
</linearGradient>
</defs>
</svg>
