<svg width="120" height="40" viewBox="0 0 120 40" fill="none" xmlns="http://www.w3.org/2000/svg">
<g clip-path="url(#clip0_1005_6709)">
<path d="M110.135 7.92969e-06H9.53468C9.16798 7.92969e-06 8.80568 7.92975e-06 8.43995 0.00200793C8.1338 0.00400793 7.83009 0.00981793 7.521 0.0147079C6.84951 0.0226097 6.17961 0.0816842 5.5171 0.191418C4.85552 0.303541 4.21467 0.514924 3.61622 0.818418C3.0185 1.12448 2.47235 1.52218 1.99757 1.99708C1.5203 2.47064 1.12246 3.01802 0.81935 3.61817C0.5154 4.21712 0.304641 4.85895 0.19435 5.52149C0.0830109 6.18319 0.0230984 6.85253 0.01515 7.52349C0.00587 7.83009 0.00489 8.13771 0 8.44435V31.5586C0.00489 31.8691 0.00587 32.1699 0.01515 32.4805C0.0231008 33.1514 0.0830134 33.8207 0.19435 34.4824C0.304336 35.1453 0.515108 35.7875 0.81935 36.3867C1.12233 36.9849 1.52022 37.5301 1.99757 38.001C2.47054 38.478 3.01705 38.876 3.61622 39.1797C4.21467 39.484 4.85545 39.6967 5.5171 39.8105C6.17972 39.9194 6.84956 39.9785 7.521 39.9873C7.83009 39.9941 8.1338 39.998 8.43995 39.998C8.80567 40 9.168 40 9.53468 40H110.135C110.494 40 110.859 40 111.219 39.998C111.523 39.998 111.836 39.9941 112.141 39.9873C112.811 39.9789 113.479 39.9198 114.141 39.8105C114.804 39.6959 115.448 39.4833 116.049 39.1797C116.647 38.8758 117.193 38.4779 117.666 38.001C118.142 37.5282 118.541 36.9835 118.848 36.3867C119.15 35.7871 119.358 35.145 119.467 34.4824C119.578 33.8206 119.64 33.1515 119.652 32.4805C119.656 32.1699 119.656 31.8691 119.656 31.5586C119.664 31.1953 119.664 30.834 119.664 30.4648V9.53614C119.664 9.16993 119.664 8.80665 119.656 8.44435C119.656 8.13771 119.656 7.83009 119.652 7.52345C119.64 6.85243 119.578 6.18324 119.467 5.52145C119.358 4.85929 119.149 4.21751 118.848 3.61813C118.23 2.4152 117.252 1.43603 116.049 0.818328C115.448 0.515575 114.804 0.304248 114.141 0.191328C113.48 0.0811107 112.811 0.0220157 112.141 0.0145679C111.836 0.00968793 111.523 0.00382793 111.219 0.00187793C110.859 -0.00012207 110.494 -0.00012207 110.135 -0.00012207V7.92969e-06Z" fill="black"/>
<path d="M8.44481 39.125C8.14013 39.125 7.84281 39.1211 7.54052 39.1143C6.9143 39.1061 6.28954 39.0516 5.67138 38.9512C5.09497 38.8519 4.53658 38.6673 4.01464 38.4033C3.49748 38.1415 3.02579 37.7983 2.61764 37.3867C2.20358 36.98 1.85885 36.5082 1.59713 35.9902C1.33252 35.4688 1.14939 34.9099 1.05413 34.333C0.95125 33.7131 0.89559 33.0863 0.887626 32.458C0.881286 32.2471 0.872986 31.5449 0.872986 31.5449V8.44434C0.872986 8.44434 0.881826 7.75293 0.887676 7.5498C0.895302 6.92248 0.950638 6.29665 1.05321 5.67773C1.14864 5.09925 1.33191 4.53875 1.59667 4.01563C1.85743 3.49794 2.20024 3.02586 2.61181 2.61768C3.02291 2.20562 3.49611 1.8606 4.01415 1.59521C4.53489 1.33209 5.09222 1.14873 5.66747 1.05127C6.28766 0.949836 6.91459 0.894996 7.54298 0.88721L8.4453 0.875H111.214L112.127 0.8877C112.75 0.895099 113.371 0.94945 113.985 1.05029C114.566 1.14898 115.13 1.33362 115.656 1.59814C116.694 2.13299 117.539 2.97916 118.071 4.01807C118.332 4.53758 118.512 5.09351 118.606 5.66699C118.71 6.29099 118.768 6.92174 118.78 7.5542C118.783 7.8374 118.783 8.1416 118.783 8.44434C118.791 8.81934 118.791 9.17627 118.791 9.53613V30.4648C118.791 30.8281 118.791 31.1826 118.783 31.54C118.783 31.8652 118.783 32.1631 118.779 32.4697C118.768 33.0909 118.71 33.7104 118.608 34.3232C118.515 34.9043 118.333 35.4675 118.068 35.9932C117.805 36.5056 117.462 36.9733 117.053 37.3789C116.644 37.7927 116.172 38.1379 115.653 38.4014C115.128 38.6674 114.566 38.8527 113.985 38.9512C113.367 39.0522 112.742 39.1067 112.116 39.1143C111.823 39.1211 111.517 39.125 111.219 39.125L110.135 39.127L8.44481 39.125Z" fill="black"/>
<path d="M115.9 0.999878H4.1C1.83563 0.999878 0 3.06364 0 5.60942V35.3903C0 37.9361 1.83563 39.9999 4.1 39.9999H115.9C118.164 39.9999 120 37.9361 120 35.3903V5.60942C120 3.06364 118.164 0.999878 115.9 0.999878Z" fill="black"/>
<path d="M115.489 39.9999H4.51634C3.31853 39.9999 2.16978 39.461 1.3228 38.5018C0.475827 37.5426 0 36.2416 0 34.8851L0 5.11463C0 3.75811 0.475827 2.45716 1.3228 1.49795C2.16978 0.538752 3.31853 -0.00012207 4.51634 -0.00012207H115.489C116.686 0.00153292 117.833 0.541138 118.679 1.50016C119.525 2.45918 120 3.7592 120 5.11463V34.8851C120 36.2406 119.525 37.5406 118.679 38.4996C117.833 39.4586 116.686 39.9982 115.489 39.9999ZM4.51634 1.01159C3.55546 1.01159 2.63394 1.44387 1.95449 2.21334C1.27505 2.98281 0.893341 4.02644 0.893341 5.11463V34.8851C0.89334 35.9739 1.27487 37.0182 1.95416 37.7886C2.63344 38.5591 3.55495 38.9928 4.51634 38.9944H115.489C116.451 38.9928 117.372 38.5591 118.051 37.7886C118.731 37.0182 119.112 35.9739 119.112 34.8851V5.11463C119.112 4.02644 118.73 2.98281 118.051 2.21334C117.372 1.44387 116.45 1.01159 115.489 1.01159H4.51634Z" fill="black"/>
<path d="M24.7689 20.3007C24.7796 19.466 25.0013 18.6477 25.4134 17.9217C25.8254 17.1957 26.4143 16.5858 27.1254 16.1486C26.6737 15.5035 26.0777 14.9725 25.3849 14.598C24.6921 14.2234 23.9215 14.0156 23.1343 13.991C21.455 13.8147 19.8271 14.9958 18.9714 14.9958C18.0991 14.9958 16.7816 14.0085 15.3629 14.0376C14.4452 14.0673 13.5509 14.3341 12.767 14.8122C11.9831 15.2903 11.3364 15.9632 10.89 16.7655C8.95595 20.1139 10.3985 25.035 12.2511 27.7416C13.178 29.0669 14.2613 30.5474 15.6788 30.4949C17.0658 30.4374 17.5839 29.6104 19.2582 29.6104C20.9169 29.6104 21.403 30.4949 22.8492 30.4615C24.3376 30.4374 25.2753 29.1303 26.1697 27.7924C26.8357 26.848 27.3481 25.8043 27.6881 24.6999C26.8234 24.3341 26.0855 23.722 25.5664 22.9397C25.0472 22.1574 24.7699 21.2396 24.7689 20.3007Z" fill="white"/>
<path d="M22.0373 12.211C22.8488 11.2367 23.2486 9.98457 23.1518 8.72034C21.912 8.85056 20.7667 9.44312 19.9442 10.3799C19.5421 10.8376 19.2341 11.37 19.0378 11.9468C18.8416 12.5236 18.7609 13.1334 18.8005 13.7413C19.4206 13.7477 20.0341 13.6133 20.5948 13.3482C21.1555 13.0831 21.6487 12.6943 22.0373 12.211Z" fill="white"/>
<path d="M42.3022 27.1397H37.5688L36.4321 30.4961H34.4272L38.9106 18.0781H40.9936L45.477 30.4961H43.438L42.3022 27.1397ZM38.0591 25.5908H41.8111L39.9615 20.1436H39.9097L38.0591 25.5908Z" fill="white"/>
<path d="M55.1597 25.9698C55.1597 28.7833 53.6538 30.5909 51.3814 30.5909C50.8057 30.621 50.2332 30.4884 49.7294 30.2083C49.2256 29.9281 48.8109 29.5118 48.5327 29.0069H48.4897V33.4913H46.6313V21.4425H48.4302V22.9483H48.4644C48.7553 22.4459 49.1771 22.0317 49.6847 21.7498C50.1923 21.468 50.7669 21.329 51.3472 21.3477C53.645 21.3477 55.1597 23.1641 55.1597 25.9698ZM53.2495 25.9698C53.2495 24.1368 52.3023 22.9317 50.857 22.9317C49.437 22.9317 48.482 24.1622 48.482 25.9698C48.482 27.794 49.437 29.0157 50.857 29.0157C52.3023 29.0157 53.2495 27.8194 53.2495 25.9698Z" fill="white"/>
<path d="M65.1245 25.9698C65.1245 28.7833 63.6186 30.5909 61.3462 30.5909C60.7705 30.621 60.198 30.4884 59.6942 30.2083C59.1904 29.9281 58.7757 29.5118 58.4975 29.0069H58.4545V33.4913H56.5961V21.4425H58.395V22.9483H58.4291C58.7201 22.4459 59.1418 22.0317 59.6494 21.7498C60.1571 21.468 60.7316 21.329 61.312 21.3477C63.6098 21.3477 65.1245 23.1641 65.1245 25.9698ZM63.2143 25.9698C63.2143 24.1368 62.267 22.9317 60.8217 22.9317C59.4018 22.9317 58.4467 24.1622 58.4467 25.9698C58.4467 27.794 59.4018 29.0157 60.8217 29.0157C62.2671 29.0157 63.2143 27.8194 63.2143 25.9698H63.2143Z" fill="white"/>
<path d="M71.7105 27.0362C71.8482 28.2676 73.0445 29.0762 74.6792 29.0762C76.2456 29.0762 77.3726 28.2676 77.3726 27.1572C77.3726 26.1934 76.6929 25.6162 75.0835 25.2207L73.4742 24.833C71.1939 24.2822 70.1353 23.2158 70.1353 21.4854C70.1353 19.3428 72.0025 17.8711 74.6538 17.8711C77.2778 17.8711 79.0767 19.3428 79.1372 21.4854H77.2612C77.1489 20.2461 76.1245 19.4981 74.6274 19.4981C73.1304 19.4981 72.106 20.2549 72.106 21.3565C72.106 22.2344 72.7603 22.751 74.3608 23.1465L75.729 23.4824C78.2769 24.0849 79.3355 25.1084 79.3355 26.9248C79.3355 29.248 77.4849 30.7031 74.5415 30.7031C71.7876 30.7031 69.9282 29.2822 69.8081 27.0361L71.7105 27.0362Z" fill="white"/>
<path d="M83.3462 19.2998V21.4424H85.0679V22.9141H83.3462V27.9053C83.3462 28.6807 83.6909 29.042 84.4477 29.042C84.6521 29.0384 84.8562 29.0241 85.0591 28.999V30.4619C84.7188 30.5255 84.3729 30.5543 84.0268 30.5478C82.1938 30.5478 81.479 29.8593 81.479 28.1035V22.9141H80.1626V21.4424H81.479V19.2998H83.3462Z" fill="white"/>
<path d="M86.065 25.9697C86.065 23.1211 87.7427 21.3311 90.3589 21.3311C92.9839 21.3311 94.6539 23.1211 94.6539 25.9697C94.6539 28.8262 92.9927 30.6084 90.3589 30.6084C87.7261 30.6084 86.065 28.8262 86.065 25.9697ZM92.7603 25.9697C92.7603 24.0156 91.8648 22.8623 90.3589 22.8623C88.8531 22.8623 87.9585 24.0244 87.9585 25.9697C87.9585 27.9316 88.8531 29.0762 90.3589 29.0762C91.8648 29.0762 92.7603 27.9316 92.7603 25.9697H92.7603Z" fill="white"/>
<path d="M96.186 21.4424H97.9585V22.9834H98.0015C98.1214 22.5021 98.4034 22.0768 98.8 21.7789C99.1966 21.481 99.6836 21.3287 100.179 21.3476C100.393 21.3469 100.607 21.3702 100.816 21.417V23.1553C100.546 23.0726 100.264 23.0347 99.981 23.043C99.711 23.032 99.4418 23.0796 99.192 23.1825C98.9421 23.2854 98.7175 23.4411 98.5335 23.639C98.3496 23.8369 98.2106 24.0723 98.1262 24.3289C98.0417 24.5856 98.0139 24.8575 98.0444 25.126V30.4961H96.186L96.186 21.4424Z" fill="white"/>
<path d="M109.384 27.8369C109.134 29.4805 107.534 30.6084 105.486 30.6084C102.852 30.6084 101.217 28.8437 101.217 26.0127C101.217 23.1729 102.861 21.3311 105.408 21.3311C107.913 21.3311 109.488 23.0518 109.488 25.7969V26.4336H103.093V26.5459C103.064 26.8791 103.105 27.2148 103.216 27.5306C103.326 27.8464 103.502 28.1352 103.732 28.3778C103.963 28.6203 104.242 28.8111 104.552 28.9374C104.861 29.0637 105.195 29.1226 105.529 29.1103C105.968 29.1515 106.409 29.0498 106.785 28.8203C107.162 28.5909 107.455 28.246 107.62 27.8369L109.384 27.8369ZM103.102 25.1348H107.628C107.645 24.8352 107.6 24.5354 107.495 24.2541C107.39 23.9729 107.229 23.7164 107.02 23.5006C106.812 23.2849 106.561 23.1145 106.283 23.0003C106.006 22.8861 105.708 22.8305 105.408 22.8369C105.105 22.8351 104.805 22.8933 104.525 23.008C104.245 23.1227 103.99 23.2918 103.776 23.5054C103.562 23.7191 103.392 23.973 103.276 24.2527C103.16 24.5323 103.101 24.8321 103.102 25.1348V25.1348Z" fill="white"/>
<path d="M38.0078 8.73096C38.2713 8.71857 38.5345 8.7617 38.7802 8.85754C39.026 8.95339 39.2488 9.09982 39.4344 9.28733C39.6199 9.47484 39.764 9.69926 39.8572 9.94602C39.9504 10.1928 39.9908 10.4564 39.9756 10.7197C39.986 10.9835 39.9413 11.2465 39.8443 11.4919C39.7472 11.7374 39.6 11.9599 39.412 12.1452C39.224 12.3304 38.9994 12.4744 38.7526 12.5679C38.5057 12.6614 38.2421 12.7023 37.9785 12.688H36.5977V14.6977H35.6709V8.73096H38.0078ZM36.5976 11.8735H37.7636C38.5615 11.8735 39.0293 11.46 39.0293 10.7197C39.0293 9.96289 38.5781 9.54932 37.7637 9.54932H36.5977L36.5976 11.8735Z" fill="white"/>
<path d="M40.8418 12.4443C40.8135 12.1484 40.8473 11.8498 40.9412 11.5677C41.035 11.2857 41.1868 11.0263 41.3867 10.8063C41.5866 10.5864 41.8303 10.4106 42.1022 10.2903C42.3741 10.17 42.668 10.1079 42.9653 10.1079C43.2626 10.1079 43.5566 10.17 43.8284 10.2903C44.1003 10.4106 44.344 10.5864 44.5439 10.8063C44.7439 11.0263 44.8956 11.2857 44.9895 11.5677C45.0833 11.8498 45.1172 12.1484 45.0888 12.4443C45.1177 12.7405 45.0842 13.0395 44.9906 13.322C44.8971 13.6045 44.7454 13.8644 44.5454 14.0848C44.3454 14.3052 44.1015 14.4813 43.8294 14.6019C43.5573 14.7224 43.2629 14.7847 42.9653 14.7847C42.6677 14.7847 42.3734 14.7224 42.1012 14.6019C41.8291 14.4813 41.5852 14.3052 41.3852 14.0848C41.1852 13.8644 41.0336 13.6045 40.94 13.322C40.8464 13.0395 40.8129 12.7405 40.8418 12.4443ZM44.1748 12.4443C44.1748 11.4682 43.7363 10.8974 42.9668 10.8974C42.1943 10.8974 41.7598 11.4682 41.7598 12.4443C41.7598 13.4282 42.1943 13.9946 42.9668 13.9946C43.7363 13.9946 44.1748 13.4243 44.1748 12.4443Z" fill="white"/>
<path d="M47.2441 13.9863H47.1777V14.6978H46.3223V8.43701H47.211V10.9102H47.2813C47.4141 10.6611 47.6148 10.4547 47.86 10.3149C48.1052 10.1751 48.385 10.1076 48.667 10.1202C49.8077 10.1202 50.5274 11.0132 50.5274 12.4444C50.5274 13.8706 49.8038 14.772 48.667 14.772C48.3805 14.7846 48.0961 14.7179 47.8451 14.5793C47.594 14.4407 47.3861 14.2355 47.2441 13.9863ZM47.1943 12.4483C47.1992 13.3911 47.6621 13.9741 48.4102 13.9741C49.1631 13.9741 49.6133 13.3994 49.6133 12.4443C49.6133 11.4971 49.1631 10.9185 48.4102 10.9185C47.666 10.9185 47.1992 11.5054 47.1943 12.4483Z" fill="white"/>
<path d="M51.6045 8.86324C51.5976 8.74814 51.6255 8.63363 51.6845 8.53455C51.7434 8.43547 51.8308 8.35638 51.9352 8.30753C52.0397 8.25867 52.1564 8.24231 52.2702 8.26055C52.3841 8.27878 52.4898 8.33079 52.5738 8.40983C52.6578 8.48886 52.716 8.59129 52.7411 8.70383C52.7662 8.81638 52.7569 8.93386 52.7144 9.04106C52.672 9.14825 52.5983 9.24023 52.5029 9.30507C52.4076 9.36992 52.295 9.40464 52.1797 9.40474C52.106 9.40849 52.0323 9.39731 51.963 9.37186C51.8937 9.34641 51.8303 9.30721 51.7766 9.25663C51.7229 9.20605 51.6799 9.14512 51.6504 9.07752C51.6208 9.00991 51.6052 8.93703 51.6045 8.86324ZM51.7363 10.1948H52.6221V14.6977H51.7363V10.1948Z" fill="white"/>
<path d="M57.8633 13.4819C57.7425 13.8934 57.4809 14.2494 57.1242 14.4876C56.7675 14.7257 56.3385 14.8309 55.9121 14.7846C55.6154 14.7925 55.3206 14.7356 55.0481 14.6181C54.7756 14.5006 54.5319 14.3252 54.334 14.104C54.1361 13.8829 53.9887 13.6213 53.902 13.3375C53.8153 13.0537 53.7914 12.7544 53.832 12.4604C53.7925 12.1655 53.8168 11.8656 53.9033 11.5809C53.9898 11.2962 54.1364 11.0335 54.3333 10.8104C54.5302 10.5873 54.7727 10.4092 55.0444 10.2879C55.3161 10.1667 55.6107 10.1053 55.9082 10.1079C57.1611 10.1079 57.917 10.9639 57.917 12.3779V12.688H54.7373V12.7378C54.7234 12.903 54.7441 13.0693 54.7983 13.2261C54.8524 13.3828 54.9387 13.5265 55.0516 13.648C55.1645 13.7695 55.3015 13.866 55.4539 13.9314C55.6063 13.9968 55.7707 14.0296 55.9365 14.0278C56.1491 14.0533 56.3644 14.015 56.5552 13.9178C56.746 13.8206 56.9035 13.6688 57.0078 13.4819L57.8633 13.4819ZM54.7373 12.0307H57.0117C57.0229 11.8796 57.0023 11.7278 56.9514 11.5851C56.9004 11.4424 56.8202 11.3119 56.7158 11.202C56.6114 11.0922 56.4852 11.0054 56.3453 10.9472C56.2053 10.889 56.0548 10.8608 55.9033 10.8642C55.7496 10.8623 55.597 10.8912 55.4547 10.9491C55.3123 11.007 55.183 11.0929 55.0743 11.2016C54.9656 11.3103 54.8798 11.4397 54.822 11.5821C54.7641 11.7245 54.7353 11.877 54.7373 12.0307H54.7373Z" fill="white"/>
<path d="M59.1103 10.1948H59.9658V10.8852H60.0322C60.128 10.6455 60.2972 10.4424 60.5157 10.3049C60.7341 10.1674 60.9905 10.1027 61.248 10.1201C61.3811 10.1183 61.5141 10.1307 61.6445 10.1572V11.0342C61.4814 10.9993 61.3152 10.9813 61.1484 10.9805C61.0018 10.9673 60.8541 10.9849 60.7148 11.0323C60.5754 11.0796 60.4475 11.1555 60.3393 11.2552C60.231 11.3549 60.1448 11.4761 60.0862 11.6111C60.0276 11.7461 59.9979 11.8919 59.999 12.039V14.6977H59.1103L59.1103 10.1948Z" fill="white"/>
<path d="M62.5234 14.0942L65 11.0176V10.9473H62.54V10.1948H66.063V10.8438L63.6396 13.875V13.9453H66.0884V14.6977H62.5234V14.0942Z" fill="white"/>
<path d="M74.4702 14.6978H73.5483L72.6177 11.3813H72.5474L71.6206 14.6978H70.7075L69.4663 10.1948H70.3677L71.1743 13.6308H71.2407L72.1665 10.1948H73.0191L73.9448 13.6308H74.0151L74.8179 10.1948H75.7065L74.4702 14.6978Z" fill="white"/>
</g>
<defs>
<clipPath id="clip0_1005_6709">
<rect width="119.664" height="40" fill="white"/>
</clipPath>
</defs>
</svg>
