<svg width="13" height="12" viewBox="0 0 13 12" fill="none" xmlns="http://www.w3.org/2000/svg">
<path d="M6.92997 10.0679L9.83343 11.9075C10.2046 12.1426 10.6654 11.7929 10.5552 11.3596L9.71636 8.05971C9.69273 7.9678 9.69553 7.87109 9.72443 7.7807C9.75333 7.69031 9.80715 7.60991 9.87971 7.54875L12.4834 5.38169C12.8255 5.09695 12.6489 4.52918 12.2093 4.50066L8.80916 4.27998C8.71758 4.27344 8.62974 4.24101 8.55587 4.18648C8.482 4.13195 8.42514 4.05756 8.39191 3.97196L7.12379 0.778494C7.08932 0.687643 7.02802 0.609428 6.94805 0.554235C6.86808 0.499042 6.7732 0.469482 6.67603 0.469482C6.57886 0.469482 6.48399 0.499042 6.40402 0.554235C6.32404 0.609428 6.26275 0.687643 6.22828 0.778494L4.96015 3.97196C4.92693 4.05756 4.87007 4.13195 4.7962 4.18648C4.72233 4.24101 4.63449 4.27344 4.54291 4.27998L1.14272 4.50066C0.703182 4.52918 0.526606 5.09695 0.868714 5.38169L3.47236 7.54875C3.54492 7.60991 3.59874 7.69031 3.62764 7.7807C3.65653 7.87109 3.65933 7.9678 3.63571 8.05971L2.85775 11.12C2.72559 11.6399 3.27854 12.0596 3.7239 11.7774L6.4221 10.0679C6.49798 10.0196 6.58608 9.99397 6.67603 9.99397C6.76599 9.99397 6.85408 10.0196 6.92997 10.0679Z" fill="#FF9500"/>
</svg>
