<svg width="747" height="565" viewBox="0 0 747 565" fill="none" xmlns="http://www.w3.org/2000/svg">
<path d="M268.852 75.4403C244.708 123.225 249.738 188.112 203.965 234.891C158.695 281.167 62.1188 309.335 22.3818 360.138C-17.3552 410.941 -0.253235 484.379 50.0468 522.607C100.85 560.835 184.348 562.847 248.229 551.278C312.11 539.206 356.374 513.05 403.153 518.583C450.435 524.116 500.735 561.338 549.023 564.356C597.311 566.871 643.084 535.685 680.809 491.924C718.534 448.163 747.708 392.833 746.702 337.503C746.199 282.173 715.516 227.346 676.785 185.597C638.054 144.351 591.275 115.68 543.49 81.4763C496.208 46.7693 447.92 6.02626 397.117 1.49926C346.314 -3.53074 292.996 27.1522 268.852 75.4403Z" fill="#FF6B00"/>
<path d="M268.852 75.4403C244.708 123.225 249.738 188.112 203.965 234.891C158.695 281.167 62.1188 309.335 22.3818 360.138C-17.3552 410.941 -0.253235 484.379 50.0468 522.607C100.85 560.835 184.348 562.847 248.229 551.278C312.11 539.206 356.374 513.05 403.153 518.583C450.435 524.116 500.735 561.338 549.023 564.356C597.311 566.871 643.084 535.685 680.809 491.924C718.534 448.163 747.708 392.833 746.702 337.503C746.199 282.173 715.516 227.346 676.785 185.597C638.054 144.351 591.275 115.68 543.49 81.4763C496.208 46.7693 447.92 6.02626 397.117 1.49926C346.314 -3.53074 292.996 27.1522 268.852 75.4403Z" fill="url(#paint0_linear_1005_6632)"/>
<defs>
<linearGradient id="paint0_linear_1005_6632" x1="747" y1="93.5" x2="-142.5" y2="593" gradientUnits="userSpaceOnUse">
<stop stop-color="#FF6B00"/>
<stop offset="1" stop-color="#FFC3DC"/>
</linearGradient>
</defs>
</svg>
