<svg width="74" height="135" viewBox="0 0 74 135" fill="none" xmlns="http://www.w3.org/2000/svg">
<path opacity="0.2" d="M-15.2104 3.0285L11.9289 24.2091C14.2252 26.0125 17.3638 26.673 20.3292 26.0073L55.2308 18.0729C62.6714 16.3804 69.0771 23.053 66.0506 29.3573L51.8897 58.93C50.6906 61.433 50.9537 64.2969 52.5747 66.6034L71.8448 93.8067C75.9654 99.6109 70.8381 107.091 63.1844 106.461L27.2918 103.549C24.2463 103.305 21.2808 104.404 19.3263 106.501L-3.67756 131.244C-8.58271 136.511 -18.145 134.475 -19.8446 127.792L-27.8735 96.4219C-28.5461 93.7639 -30.6541 91.5838 -33.4894 90.5762L-66.9836 78.6671C-74.1295 76.1331 -74.9145 67.3772 -68.3207 63.8678L-37.3948 47.4029C-34.7668 46.0135 -33.1023 43.5546 -32.8986 40.8246L-30.5897 8.72893C-30.0654 1.87128 -20.9964 -1.4902 -15.2104 3.0285Z" fill="#F5C13A"/>
</svg>
