<svg width="40" height="15" viewBox="0 0 40 15" fill="none" xmlns="http://www.w3.org/2000/svg">
<path fill-rule="evenodd" clip-rule="evenodd" d="M32.5931 1.81224H34.6392V7.90404H35.4365L37.3472 5.07292H39.5281L37.1666 8.45174L39.6643 12.484H37.4072L35.4817 9.50484H34.6392V12.484H32.5931V1.81224ZM30.9242 1.67935V0.405273H28.4872V2.80611H29.7057C29.6554 3.00375 29.568 3.20868 29.4422 3.42091C29.3171 3.63386 29.1394 3.85849 28.9084 4.09551L29.6006 4.77667C29.8619 4.51048 30.0744 4.26543 30.2394 4.04373C30.4053 3.82129 30.5415 3.59156 30.6459 3.35454C30.7517 3.11752 30.8235 2.86519 30.8642 2.59826C30.9042 2.33207 30.9242 2.02577 30.9242 1.67935ZM28.984 6.70256H27.9306V5.07186H31.0301V12.483H28.984V6.70256ZM22.5628 7.07459V10.8837C22.7434 10.9034 22.9218 10.9136 23.0972 10.9136H23.7065C24.278 10.9136 24.7066 10.705 24.9931 10.2908C25.2781 9.87581 25.4217 9.29748 25.4217 8.55651C25.4217 7.29192 24.9095 6.65962 23.8864 6.65962C23.3556 6.65962 22.9137 6.79818 22.5628 7.07459ZM20.5321 5.0719H22.4421V5.60574C22.7434 5.38841 23.0447 5.23234 23.3452 5.13826C23.6458 5.04491 24.007 4.99751 24.4283 4.99751C25.341 4.99751 26.0754 5.31694 26.6321 5.95434C27.1888 6.59102 27.4671 7.48805 27.4671 8.64398C27.4671 9.18731 27.3849 9.69417 27.2184 10.1631C27.054 10.6328 26.8134 11.0397 26.4973 11.3854C26.1812 11.7318 25.7874 12.0038 25.3159 12.2008C24.8443 12.3991 24.3083 12.4968 23.7065 12.4968C23.5155 12.4968 23.3252 12.4925 23.135 12.483C22.944 12.4728 22.753 12.4582 22.5627 12.4378V14.7795H20.5321V5.0719ZM14.7367 12.4829H12.6906V7.97656C12.6906 7.512 12.6025 7.16704 12.4271 6.9395C12.2516 6.71269 11.974 6.59819 11.5928 6.59819C11.3011 6.59819 11.0487 6.64559 10.8325 6.73967C10.6171 6.83375 10.4091 6.96357 10.2084 7.13203V12.4829H8.17785V5.07177H10.1329V5.62093C10.7955 5.17533 11.4566 4.95363 12.1191 4.95363C12.45 4.95363 12.778 5.02218 13.1044 5.16075C13.4301 5.29931 13.7085 5.54655 13.9395 5.90171C14.2297 5.61583 14.5783 5.38537 14.9847 5.21253C15.3912 5.04042 15.8649 4.95363 16.4068 4.95363C16.7377 4.95363 17.0709 4.9952 17.4069 5.07907C17.7423 5.16367 18.0465 5.31463 18.3167 5.53196C18.5877 5.74856 18.8113 6.0483 18.9867 6.42826C19.1614 6.80896 19.2502 7.2954 19.2502 7.88758V12.4829H17.2182V7.97656C17.2182 7.52221 17.136 7.18163 16.9709 6.95409C16.8051 6.72655 16.5319 6.6135 16.1507 6.6135C15.7087 6.6135 15.3638 6.74697 15.1128 7.01389C14.8619 7.28008 14.7367 7.61629 14.7367 8.02177V12.4829ZM2.17621 7.96298H5.22988C5.20989 7.54802 5.06923 7.20525 4.80866 6.93249C4.54808 6.66119 4.20681 6.52554 3.78559 6.52554C3.32439 6.52554 2.96091 6.6539 2.69515 6.91061C2.42939 7.16805 2.2569 7.51811 2.17621 7.96298ZM7.05061 8.43601V9.26668H2.14624C2.18621 9.61237 2.26394 9.89606 2.38017 10.1185C2.49491 10.3402 2.6326 10.5167 2.79324 10.6443C2.95389 10.7727 3.12637 10.8616 3.31218 10.912C3.49725 10.9608 3.68084 10.9856 3.86147 10.9856C4.31304 10.9856 4.64839 10.9039 4.86974 10.7406C5.09034 10.578 5.25468 10.3679 5.36572 10.1112L6.99064 10.7632C6.76042 11.3561 6.37621 11.8105 5.83951 12.127C5.3028 12.4428 4.61878 12.601 3.78596 12.601C2.62298 12.601 1.71761 12.2553 1.07061 11.5632C0.423601 10.8719 0.100098 9.91357 0.100098 8.68835C0.100098 8.15451 0.177827 7.66077 0.333287 7.20569C0.488746 6.75134 0.718974 6.35898 1.02545 6.02788C1.33193 5.69678 1.71021 5.43496 2.16178 5.24243C2.61262 5.04917 3.13377 4.95363 3.726 4.95363C4.24716 4.95363 4.71354 5.0426 5.12513 5.22055C5.53599 5.39777 5.88466 5.64281 6.17115 5.95422C6.45616 6.2649 6.67454 6.6332 6.82482 7.05765C6.97584 7.48282 7.05061 7.94228 7.05061 8.43601Z" fill="black"/>
</svg>
