<svg width="50" height="50" viewBox="0 0 50 50" fill="none" xmlns="http://www.w3.org/2000/svg">
<g filter="url(#filter0_d_1005_6641)">
<path fill-rule="evenodd" clip-rule="evenodd" d="M32.0218 1.19287C36.7567 1.19287 39.1234 1.19287 41.6716 1.99852C44.4541 3.01088 46.6455 5.20301 47.6586 7.98465C48.4635 10.5328 48.4635 12.9003 48.4635 17.6351V31.9103C48.4635 36.6451 48.4635 39.0118 47.6586 41.5608C46.6455 44.3424 44.4541 46.5337 41.6716 47.5469C39.1234 48.3525 36.7567 48.3525 32.0218 48.3525H17.7455C13.0114 48.3525 10.644 48.3525 8.09572 47.5469C5.31326 46.5337 3.12187 44.3424 2.1087 41.5608C1.30383 39.0118 1.30383 36.6451 1.30383 31.9103V17.6351C1.30383 12.9003 1.30383 10.5328 2.1087 7.98465C3.12187 5.20301 5.31326 3.01088 8.09572 1.99852C10.644 1.19287 13.0114 1.19287 17.7455 1.19287H32.0218Z" fill="white"/>
<path fill-rule="evenodd" clip-rule="evenodd" d="M32.0218 1.19287C36.7567 1.19287 39.1234 1.19287 41.6716 1.99852C44.4541 3.01088 46.6455 5.20301 47.6586 7.98465C48.4635 10.5328 48.4635 12.9003 48.4635 17.6351V31.9103C48.4635 36.6451 48.4635 39.0118 47.6586 41.5608C46.6455 44.3424 44.4541 46.5337 41.6716 47.5469C39.1234 48.3525 36.7567 48.3525 32.0218 48.3525H17.7455C13.0114 48.3525 10.644 48.3525 8.09572 47.5469C5.31326 46.5337 3.12187 44.3424 2.1087 41.5608C1.30383 39.0118 1.30383 36.6451 1.30383 31.9103V17.6351C1.30383 12.9003 1.30383 10.5328 2.1087 7.98465C3.12187 5.20301 5.31326 3.01088 8.09572 1.99852C10.644 1.19287 13.0114 1.19287 17.7455 1.19287H32.0218Z" stroke="#E1E3E5" stroke-width="1.47374"/>
</g>
<defs>
<filter id="filter0_d_1005_6641" x="0.567017" y="0.456055" width="48.6333" height="48.6333" filterUnits="userSpaceOnUse" color-interpolation-filters="sRGB">
<feFlood flood-opacity="0" result="BackgroundImageFix"/>
<feColorMatrix in="SourceAlpha" type="matrix" values="0 0 0 0 0 0 0 0 0 0 0 0 0 0 0 0 0 0 127 0" result="hardAlpha"/>
<feOffset/>
<feColorMatrix type="matrix" values="0 0 0 0 0 0 0 0 0 0 0 0 0 0 0 0 0 0 0.07 0"/>
<feBlend mode="normal" in2="BackgroundImageFix" result="effect1_dropShadow_1005_6641"/>
<feBlend mode="normal" in="SourceGraphic" in2="effect1_dropShadow_1005_6641" result="shape"/>
</filter>
</defs>
</svg>
