<svg width="16" height="15" viewBox="0 0 16 15" fill="none" xmlns="http://www.w3.org/2000/svg">
<path d="M8.10901 11.4208L11.2612 13.4179C11.6642 13.6732 12.1644 13.2935 12.0449 12.8232L11.1341 9.24052C11.1085 9.14074 11.1115 9.03574 11.1429 8.9376C11.1742 8.83947 11.2327 8.75218 11.3115 8.68578L14.1382 6.33306C14.5096 6.02393 14.3179 5.40752 13.8407 5.37655L10.1492 5.13697C10.0498 5.12986 9.9544 5.09466 9.8742 5.03546C9.794 4.97625 9.73227 4.89548 9.6962 4.80256L8.31943 1.33549C8.28201 1.23686 8.21546 1.15194 8.12864 1.09202C8.04181 1.0321 7.93881 1.00001 7.83331 1.00001C7.72782 1.00001 7.62482 1.0321 7.53799 1.09202C7.45117 1.15194 7.38462 1.23686 7.3472 1.33549L5.97043 4.80256C5.93436 4.89548 5.87263 4.97625 5.79243 5.03546C5.71223 5.09466 5.61686 5.12986 5.51743 5.13697L1.82594 5.37655C1.34875 5.40752 1.15704 6.02393 1.52846 6.33306L4.35517 8.68578C4.43394 8.75218 4.49238 8.83947 4.52375 8.9376C4.55512 9.03574 4.55816 9.14074 4.53252 9.24052L3.6879 12.563C3.54442 13.1274 4.14475 13.5831 4.62827 13.2767L7.55762 11.4208C7.64001 11.3683 7.73565 11.3405 7.83331 11.3405C7.93098 11.3405 8.02662 11.3683 8.10901 11.4208Z" fill="#F5C13A" stroke="#F5C13A" stroke-width="2" stroke-linecap="round" stroke-linejoin="round"/>
</svg>
