<svg width="16" height="16" viewBox="0 0 16 16" fill="none" xmlns="http://www.w3.org/2000/svg">
<path d="M8.10901 12.4208L11.2612 14.4179C11.6642 14.6732 12.1644 14.2935 12.0449 13.8232L11.1341 10.2405C11.1085 10.1407 11.1115 10.0357 11.1429 9.9376C11.1742 9.83947 11.2327 9.75218 11.3115 9.68578L14.1382 7.33306C14.5096 7.02393 14.3179 6.40752 13.8407 6.37655L10.1492 6.13697C10.0498 6.12986 9.9544 6.09466 9.8742 6.03546C9.794 5.97625 9.73227 5.89548 9.6962 5.80256L8.31943 2.33549C8.28201 2.23686 8.21546 2.15194 8.12864 2.09202C8.04181 2.0321 7.93881 2.00001 7.83331 2.00001C7.72782 2.00001 7.62482 2.0321 7.53799 2.09202C7.45117 2.15194 7.38462 2.23686 7.3472 2.33549L5.97043 5.80256C5.93436 5.89548 5.87263 5.97625 5.79243 6.03546C5.71223 6.09466 5.61686 6.12986 5.51743 6.13697L1.82594 6.37655C1.34875 6.40752 1.15704 7.02393 1.52846 7.33306L4.35517 9.68578C4.43394 9.75218 4.49238 9.83947 4.52375 9.9376C4.55512 10.0357 4.55816 10.1407 4.53252 10.2405L3.6879 13.563C3.54442 14.1274 4.14475 14.5831 4.62827 14.2767L7.55762 12.4208C7.64001 12.3683 7.73565 12.3405 7.83331 12.3405C7.93098 12.3405 8.02662 12.3683 8.10901 12.4208V12.4208Z" stroke="#F5C13A" stroke-width="2" stroke-linecap="round" stroke-linejoin="round"/>
<path d="M7.99998 2V11.9261L6.99998 12.5928L3.99998 14.2594L4.66665 10.5928L4.33331 8.92611L1.33331 6.59277L3.99998 5.92611L6.33331 5.59277L7.99998 2Z" fill="#F5C13A"/>
</svg>
